<?xml version="1.0" encoding="UTF-8"?>
<svg id="Layer_1" data-name="Layer 1" xmlns="http://www.w3.org/2000/svg" version="1.1" xmlns:xlink="http://www.w3.org/1999/xlink" viewBox="0 0 1920 1080">
  <defs>
    <style>
      .cls-1 {
        fill: #ffe9bd;
      }

      .cls-1, .cls-2, .cls-3, .cls-4, .cls-5, .cls-6, .cls-7, .cls-8, .cls-9, .cls-10, .cls-11 {
        stroke-width: 0px;
      }

      .cls-2 {
        fill: #000;
      }

      .cls-3 {
        fill: #932153;
      }

      .cls-4 {
        fill: #3c5db6;
      }

      .cls-5 {
        fill: #ffa89f;
      }

      .cls-6 {
        fill: #ba3c28;
      }

      .cls-12 {
        stroke: #ac381f;
        stroke-miterlimit: 10;
      }

      .cls-12, .cls-10 {
        fill: #fff;
      }

      .cls-7 {
        fill: #ffc2df;
      }

      .cls-8 {
        fill: #f4f4f4;
      }

      .cls-9 {
        fill: #fed271;
      }

      .cls-11 {
        fill: #b6cdff;
      }
    </style>
    <image id="image" width="1500" height="1500" xlink:href="C:\Users\PC FACTOR BLACK\Downloads\Navia_Stckr.png"/>
    <image id="image-2" width="1500" height="1500" xlink:href="C:\Users\PC FACTOR BLACK\Downloads\KAZUHASTKR.png"/>
    <image id="image-3" width="1500" height="1500" xlink:href="C:\Users\PC FACTOR BLACK\Downloads\Lyney_Stckr.png"/>
    <image id="image-4" width="1500" height="1500" xlink:href="C:\Users\PC FACTOR BLACK\Downloads\Hat_Guy_Stckr.png"/>
  </defs>
  <rect class="cls-5" x="-71.7" y="22.6" width="257.9" height="257.9"/>
  <rect class="cls-8" x="186.2" y="22.6" width="257.9" height="257.9"/>
  <rect class="cls-1" x="444.1" y="22.6" width="257.9" height="257.9"/>
  <rect class="cls-8" x="702.1" y="22.6" width="257.9" height="257.9"/>
  <rect class="cls-7" x="702.1" y="280.9" width="257.9" height="257.9" transform="translate(1662.1 819.8) rotate(180)"/>
  <rect class="cls-8" x="444.1" y="280.9" width="257.9" height="257.9" transform="translate(1146.2 819.8) rotate(180)"/>
  <rect class="cls-11" x="186.2" y="280.9" width="257.9" height="257.9" transform="translate(630.3 819.8) rotate(180)"/>
  <rect class="cls-8" x="-71.7" y="280.9" width="257.9" height="257.9" transform="translate(114.5 819.8) rotate(180)"/>
  <rect class="cls-5" x="-71.7" y="539.8" width="257.9" height="257.9"/>
  <rect class="cls-8" x="186.2" y="539.8" width="257.9" height="257.9"/>
  <rect class="cls-1" x="444.1" y="539.8" width="257.9" height="257.9"/>
  <rect class="cls-8" x="702.1" y="539.8" width="257.9" height="257.9"/>
  <rect class="cls-7" x="702.1" y="798.1" width="257.9" height="257.9" transform="translate(1662.1 1854.2) rotate(180)"/>
  <rect class="cls-8" x="444.1" y="798.1" width="257.9" height="257.9" transform="translate(1146.2 1854.2) rotate(180)"/>
  <rect class="cls-11" x="186.2" y="798.1" width="257.9" height="257.9" transform="translate(630.3 1854.2) rotate(180)"/>
  <rect class="cls-8" x="-71.7" y="798.1" width="257.9" height="257.9" transform="translate(114.5 1854.2) rotate(180)"/>
  <g>
    <path class="cls-10" d="M416.7-205.6c0-86,0-172,0-257.9,86,0,172,0,257.9,0,0,86,0,172,0,257.9-86,0-172,0-257.9,0ZM567.6-282.9c7.6-1.6,14.7-4,21-8.3,6.3-4.3,11.7-9.5,15.8-16.1,0,.1.1.2.1.2-.1.5-.3,1-.4,1.5-1.5,5-3.8,9.6-7.2,13.6-3.2,3.7-7,6.6-11.5,8.4-.4.1-.8.7-.8,1,0,.3.6.9.9.9,2.2,0,4.4.2,6.5,0,4.9-.6,9.2-2.6,13.2-5.4,8.1-5.6,13-13.4,15.8-22.7,1.6-5.3,2-10.7,1.9-16.1,0-.3,0-.7,0-1,5.3-.8,8.7-2.2,12.3-5.2,2.5-2.1,4.6-4.7,5.9-7.8.3-.6.3-1.2-.4-1.6-.7-.4-1.1,0-1.5.6-.5.5-1,1.1-1.7,1.4-.9.5-1.9.8-2.9,1.1-1.8.5-3.6.4-5.5,0,.3-.2.5-.3.7-.4,2.2-1.3,3.8-3.1,5-5.3,1.5-2.8,2.2-5.9,2-9.1,0-.5-.4-1.1-.8-1.3-.6-.3-1,.3-1.3.8-.4.6-.7,1.3-1.2,1.9-.7,1-1.7,1.3-2.8.8-.8-.3-1.6-.8-2.3-1.3-2.2-1.6-3.5-3.8-4.6-6.2-1.7-3.8-3.3-7.6-4.8-11.4-3.6-8.8-8.7-16.4-15.8-22.8-.2-.2-.4-.3-.6-.4.6-.6,1.2-1,1.6-1.5,3.2-3.3,4.4-7.2,2.9-11.6-.4-1-1.1-2-1.8-2.9-.4-.5-1.1-.6-1.6-.2-.3.2-.5.8-.4,1.1.4,2.1-.2,3.9-1.6,5.5-2.6,3-7,3-10.2,1.7-2.2-.9-4.3-1.9-6.4-2.8-.4-.2-.8-.4-1.2-.7-3.4-3-7.2-5.3-11.5-6.8-5.9-2.1-11.9-1.5-17.8.3-1.8.6-3.5,1.4-5.3,2.2-.2-.5-.4-1.1-.6-1.8-2.2-6.2-5.9-11.3-11.6-14.6-6.3-3.7-13.2-4.8-20.4-3.7-9.6,1.5-16.5,6.5-20.6,15.3-.5,1.1-.9,2.2-1.2,3.4-.2.5,0,1.1.5,1.4.6.2.9-.1,1.3-.5,1-1.1,2-2.2,3.1-3.1,5.4-4.3,11.5-7.1,18.5-7.7,2.4-.2,4.9-.3,7.2.2,3.3.8,6.2,2.8,8.9,4.8,0,0,0,0,0,.1-.2,0-.4-.1-.6-.2-3.7-1.3-7.6-1.6-11.4-1.1-7.8,1-14.8,3.7-20.9,8.8-3.9,3.2-7.1,6.9-9.1,11.5-.6,1.3-1.6,2.5-2.5,3.6-.8.9-1.8,1.6-2.6,2.5-1.4,1.6-3.2,2.8-5.1,3.6-4.3,1.9-8.5,1.7-12.3-1.3-1.1-.8-1.8-2.1-2.7-3.1-.3-.3-.8-.6-1.1-.5-.3,0-.6.6-.8,1,0,.2,0,.4,0,.7.1,3.7,1.5,7,3.8,9.9,1.5,1.9,3.4,3.4,5.8,4,.4.1.9.2,1.3.3-.2.4-.3.7-.4.9-1.8,3.8-3.2,7.6-4,11.7-.2,1.1-.7,1.6-1.6,1.9-5.2,1.8-9.9,1.1-14.2-2.5-.7-.6-1.2-.6-1.8,0-.7.7-.4,1.5,0,2.2,1,2.2,2.3,4.2,4,5.9,3.2,3.2,7,5.2,11.6,5.7-1.1,2.6-2.7,4.7-4.9,6.4-4,3-8.4,4.5-13.4,4.4-.7,0-1.3.1-1.5.8-.1.5,0,1.2.3,1.6.5.8,1.2,1.5,1.9,2.1,3.6,3.1,7.9,4.6,12.6,5,1.3.1,2.6,0,4.1,0-.3.5-.4.8-.6,1-1.1,1.2-2.1,2.5-3.3,3.6-1.1,1-2.4,1.9-3.6,2.8-1.1.8-1.2,1.7,0,2.3,2.7,1.4,5.6,1.9,8.7,1.5,1.3-.1,2.5-.5,3.7-.7,2.4,16.6,9.8,29.5,26.2,35.8-.7.4-1.5.3-2.2,0-1.2-.3-2.1.4-2.1,1.6,0,2,1.7,3.9,3.6,4.3.2,0,.4.1.7.2-.4,1.4-.8,2.7-1.2,4.1-.5,1.7-1.6,2.5-3.4,2.6-1.4,0-1.9,1-1.3,2.3.9,1.7,2.3,2.5,4.1,2.6.7,0,.8.3,1,.8.7,2.7,2.1,5.1,4,7.2.4.5,1,.8,1.6.4.6-.3.7-.9.7-1.5,0-1.2-.2-2.5,0-3.7.5-3.3,2.5-5.8,4.9-7.9.8.9,1.5,1.9,2.4,2.7.6.6,1.2,1.2,2.1.7.9-.5.7-1.3.6-2.1-.4-2.6.1-5,1.4-7.3.8-1.5,1.4-3,1.4-4.7,0-.2.2-.6.4-.7,1.1-.3,1.9-1.1,2.4-2,1.6.2,3.1.3,4.7.5-.2.4-.6.7-.6,1.1-.2.7-.4,1.4-.3,2.1.2,1-.3,1.6-1.3,1.6-.5,0-.9.3-1.4.6-.2.2-.4.5-.5.8-.8,1.3-1.5,2.7-2.9,3.6-.8.5-.8,1.6-.2,2.4.3.4.7.8,1,1.2-.7,1.2-1.5,2.4-2.1,3.8-1.4,3.2,0,6.9,3.1,8.5,1.7.9,3.5,1.2,5.5.7-.4.6-.8,1.1-1.3,1.5-.5.5-1.2.9-1.7,1.5-.3.4-.5.9-.7,1.4-.2.4-.3,1-.5,1.4-.7,1-1.5,2-2.1,3-.9,1.6-.7,2.6.6,3.8.2.2.4.4.7.5,1.9,1.3,3.8,2.6,5.6,3.9.3.2.6.4.4.9-.8,1.8-.4,3.1,1,4.4.3.2.5.5.7.8.9,1.6,2.2,2.7,4,3.2,3.4.9,6.5.2,9.3-2,.3-.2.5-.5.8-.6,1.3-.6,1.9-1.4,1.7-2.7-.2-1.1.1-2.1.4-3.1.2-.5.4-.8.9-.8.9,0,1.4-.4,1.4-1.4,0-.9,0-1.7.1-2.6,0-.4.1-.9.2-1.4.5.6.7,1.3,1.2,1.6.8.6,1,1.4,1,2.3,0,1,.5,1.4,1.4,1.4.5,0,.7.3.9.7.3,1,.6,2,.5,3.2-.2,1.3.4,2.2,1.6,2.7.2,0,.4.2.6.3,1.6,1.5,3.5,2.2,5.6,2.5,3.4.5,6.2-.8,8.1-3.8,0-.1.1-.3.2-.3,1.1-.8,1.7-1.8,1.8-3.2.8.4,1.4.9,2.1,1.1.5.2,1.1.3,1.6,0,.6-.3.8-.9.6-1.6-.9-4.9-2.9-9.4-5.4-13.7-.5-.8-.9-1.5-.9-2.4,0-1.4,0-2.8,0-4.2,1.6,1.2,3.2,1.8,5,1.7,5.5-.5,8.4-5.9,5.5-10.7-.7-1.2-1.4-2.4-2.1-3.6,2-1.3,2.1-1.8.8-3.7-.9-1.3-1.9-2.5-2.8-3.8-.2-.3-.4-.7-.5-1.1-.4-1.1-.8-2.3-1.3-3.4-.3-.6-.8-1-1.5-.8-.8.2-1.6.6-2.4,1-.2-.2-.5-.5-.9-.9Z"/>
    <path class="cls-2" d="M567.6-282.9c.4.4.7.6.9.9.8-.4,1.6-.7,2.4-1,.7-.2,1.3.2,1.5.8.5,1.1.9,2.3,1.3,3.4.2.4.3.8.5,1.1.9,1.3,1.9,2.5,2.8,3.8,1.3,1.9,1.2,2.4-.8,3.7.7,1.2,1.4,2.4,2.1,3.6,3,4.8,0,10.1-5.5,10.7-1.8.2-3.4-.5-5-1.7,0,1.4,0,2.8,0,4.2,0,.9.5,1.6.9,2.4,2.5,4.3,4.5,8.8,5.4,13.7.1.7,0,1.4-.6,1.6-.4.2-1.1.1-1.6,0-.7-.2-1.3-.7-2.1-1.1-.1,1.4-.7,2.5-1.8,3.2-.1,0-.2.2-.2.3-1.8,3-4.6,4.3-8.1,3.8-2.1-.3-4-1.1-5.6-2.5-.2-.2-.4-.3-.6-.3-1.2-.5-1.8-1.4-1.6-2.7.2-1.1-.1-2.1-.5-3.2-.1-.5-.3-.7-.9-.7-.9,0-1.4-.5-1.4-1.4,0-.9-.2-1.7-1-2.3-.5-.4-.8-1-1.2-1.6,0,.5-.2,1-.2,1.4,0,.9-.1,1.7-.1,2.6,0,.9-.5,1.4-1.4,1.4-.6,0-.8.3-.9.8-.3,1-.6,2-.4,3.1.2,1.4-.4,2.2-1.7,2.7-.3.1-.6.4-.8.6-2.8,2.2-5.9,2.9-9.3,2-1.8-.5-3.1-1.6-4-3.2-.2-.3-.4-.6-.7-.8-1.4-1.3-1.8-2.6-1-4.4.2-.5,0-.6-.4-.9-1.9-1.3-3.8-2.6-5.6-3.9-.2-.2-.5-.3-.7-.5-1.4-1.2-1.6-2.2-.6-3.8.6-1.1,1.4-2,2.1-3,.3-.4.3-.9.5-1.4.2-.5.4-1,.7-1.4.5-.5,1.1-.9,1.7-1.5.5-.4.9-1,1.3-1.5-2,.5-3.8.2-5.5-.7-3.2-1.6-4.6-5.3-3.1-8.5.6-1.3,1.5-2.6,2.1-3.8-.3-.4-.7-.8-1-1.2-.7-.8-.6-1.9.2-2.4,1.4-.9,2.1-2.3,2.9-3.6.2-.3.3-.6.5-.8.4-.3.9-.6,1.4-.6,1,0,1.5-.6,1.3-1.6,0-.7,0-1.4.3-2.1,0-.4.4-.7.6-1.1-1.6-.2-3.1-.3-4.7-.5-.5,1-1.3,1.7-2.4,2-.2,0-.4.4-.4.7,0,1.7-.5,3.3-1.4,4.7-1.3,2.3-1.9,4.7-1.4,7.3.1.7.3,1.6-.6,2.1-.9.5-1.6-.1-2.1-.7-.8-.8-1.5-1.7-2.4-2.7-2.4,2.1-4.4,4.5-4.9,7.9-.2,1.2,0,2.5,0,3.7,0,.7,0,1.2-.7,1.5-.6.3-1.2,0-1.6-.4-1.9-2.1-3.3-4.5-4-7.2-.2-.6-.4-.8-1-.8-1.8-.1-3.3-.9-4.1-2.6-.7-1.3-.2-2.2,1.3-2.3,1.8-.1,2.9-1,3.4-2.6.4-1.3.8-2.7,1.2-4.1-.3,0-.5-.1-.7-.2-1.9-.4-3.5-2.4-3.6-4.3,0-1.2.9-2,2.1-1.6.8.2,1.5.3,2.2,0-16.4-6.4-23.8-19.2-26.2-35.8-1.2.2-2.4.6-3.7.7-3,.3-5.9-.2-8.7-1.5-1.1-.6-1.1-1.5,0-2.3,1.2-.9,2.5-1.8,3.6-2.8,1.2-1.1,2.2-2.4,3.3-3.6.2-.2.3-.5.6-1-1.5,0-2.8,0-4.1,0-4.7-.4-9-1.9-12.6-5-.7-.6-1.4-1.3-1.9-2.1-.3-.4-.4-1.1-.3-1.6.2-.6.8-.8,1.5-.8,5,0,9.5-1.4,13.4-4.4,2.2-1.6,3.8-3.8,4.9-6.4-4.6-.5-8.4-2.5-11.6-5.7-1.7-1.7-3-3.7-4-5.9-.3-.7-.6-1.5,0-2.2.7-.7,1.1-.7,1.8,0,4.3,3.6,9,4.3,14.2,2.5.9-.3,1.4-.8,1.6-1.9.8-4.1,2.2-8,4-11.7.1-.3.3-.6.4-.9-.5-.1-.9-.2-1.3-.3-2.4-.6-4.3-2.1-5.8-4-2.3-2.9-3.7-6.2-3.8-9.9,0-.2,0-.5,0-.7.2-.4.4-.9.8-1,.3,0,.9.2,1.1.5.9,1,1.7,2.2,2.7,3.1,3.8,3,8,3.1,12.3,1.3,1.9-.8,3.6-2,5.1-3.6.8-.9,1.8-1.6,2.6-2.5.9-1.1,1.9-2.3,2.5-3.6,2-4.7,5.3-8.4,9.1-11.5,6.1-5,13.1-7.8,20.9-8.8,3.9-.5,7.7-.2,11.4,1.1.2,0,.4.1.6.2,0,0,0-.1,0-.1-2.8-2-5.6-4-8.9-4.8-2.3-.5-4.8-.5-7.2-.2-6.9.7-13.1,3.4-18.5,7.7-1.1.9-2.1,2.1-3.1,3.1-.4.4-.7.8-1.3.5-.6-.3-.7-.8-.5-1.4.4-1.1.7-2.3,1.2-3.4,4.1-8.8,11-13.8,20.6-15.3,7.3-1.1,14.1,0,20.4,3.7,5.8,3.3,9.4,8.4,11.6,14.6.2.6.4,1.2.6,1.8,1.8-.8,3.5-1.6,5.3-2.2,5.9-1.8,11.8-2.4,17.8-.3,4.3,1.5,8.1,3.9,11.5,6.8.3.3.7.5,1.2.7,2.1,1,4.3,2,6.4,2.8,3.2,1.3,7.6,1.2,10.2-1.7,1.4-1.6,2-3.4,1.6-5.5,0-.3.1-.9.4-1.1.5-.4,1.2-.4,1.6.2.7.9,1.4,1.8,1.8,2.9,1.6,4.5.3,8.3-2.9,11.6-.5.5-1,.9-1.6,1.5.2.1.4.3.6.4,7.1,6.3,12.2,14,15.8,22.8,1.6,3.8,3.2,7.6,4.8,11.4,1.1,2.4,2.4,4.6,4.6,6.2.7.5,1.5,1,2.3,1.3,1.1.4,2.1.1,2.8-.8.4-.6.8-1.3,1.2-1.9.3-.5.7-1.1,1.3-.8.4.2.8.9.8,1.3.2,3.2-.4,6.2-2,9.1-1.2,2.2-2.8,4-5,5.3-.2,0-.3.2-.7.4,2,.4,3.8.5,5.5,0,1-.3,2-.6,2.9-1.1.6-.3,1.2-.8,1.7-1.4.4-.5.8-.9,1.5-.6.7.4.6,1,.4,1.6-1.3,3.1-3.4,5.6-5.9,7.8-3.6,3-7,4.4-12.3,5.2,0,.3,0,.7,0,1,.1,5.5-.3,10.9-1.9,16.1-2.8,9.3-7.7,17.1-15.8,22.7-4,2.7-8.4,4.8-13.2,5.4-2.1.3-4.3.1-6.5,0-.3,0-.9-.6-.9-.9,0-.3.4-.9.8-1,4.6-1.8,8.4-4.7,11.5-8.4,3.4-4,5.7-8.6,7.2-13.6.2-.5.3-1,.4-1.5,0,0,0,0-.1-.2-4.1,6.6-9.5,11.8-15.8,16.1-6.3,4.3-13.5,6.7-21,8.3ZM609.7-327.8c-.7-.8-1.6-1.8-2.5-2.7-3.7-3.9-6.1-8.7-8.3-13.6-2.7-6.2-4.5-12.7-6.4-19.2-1.7-5.9-3.6-11.7-6.3-17.2-2.7-5.4-6.5-9.9-12.1-12.6-5-2.4-10.3-3.7-15.8-4-1.9-.1-3.7,0-5.6,0-.6,0-1.1,0-1.3-.7-.2-.7.3-1,.8-1.2.4-.1.8-.3,1.1-.4,3.1-.9,6.3-1.2,9.5-1.3,6.7-.2,13,1.3,18.9,4.4,5.6,3,10.7,6.6,14.9,11.4.7.9.8,1.5.3,1.9-.5.4-1,.2-1.8-.6-7.4-7.8-16.1-13.4-27-14.9-1.4-.2-2.8-.2-4.3-.3,1.5.5,3,.9,4.6,1.3,5.2,1.5,10,3.7,13.9,7.7,3.1,3.2,5.3,7,7.1,11.1,2.6,5.9,4.4,12.1,6.2,18.3,1.9,6.7,4.1,13.3,7.2,19.6,1.6,3.2,3.8,5.7,6.7,7.8,7.5,5.3,16.6,5.1,23.7-.6,1.1-.8,2-1.9,2.9-2.8,0,0,0-.1-.1-.2-.6.2-1.1.4-1.7.5-.6.1-1.2.2-1.9.2-6.3,0-11.6-2.5-15.7-7.2-2.9-3.3-4.7-7.3-6.3-11.3-1.5-3.8-2.8-7.7-4.4-11.5-1.3-3.2-3-6.2-4.5-9.3-.5-1-.5-1.6.1-1.9.6-.3,1.1,0,1.7.9,0,0,0,.1,0,.1,2.6,4.1,4.5,8.5,6.1,13,1.7,4.6,3.3,9.3,5.6,13.7,2.2,4.1,5.1,7.6,9.5,9.6.5.2,1.3.3,1.9.1,4.2-1.3,7.6-5.6,8-10.3-1.5,1.4-3.3,1.6-5,.8-1.3-.6-2.5-1.5-3.6-2.4-2.2-1.9-3.5-4.5-4.7-7.1-2-4.7-3.9-9.4-6.1-14-6.6-13.8-16.9-23.8-31.3-29.1-7.8-2.9-15.9-3.7-24.2-1.8-2.6.6-5.1,1.6-7.7,2.5-.4.1-.9.5-1.2.8-.7,1.1-1.4,1.4-2.5.6-3.7-2.7-7.7-4.5-12-5.8-10.4-3.1-20.5-2.4-30.3,2.5-.4.2-.7.4-1.1.6.2,0,.3,0,.4,0,2.1-.8,4.3-1.7,6.5-2.3,1.9-.6,3.8-.9,5.8-1.3.6-.1,1.3.1,1.3.9,0,.7-.5,1-1.1,1.1-.6.1-1.3.2-1.9.3-19.7,4.9-33.1,17-40.8,35.7-.6,1.6-1,3.2-1.5,4.8,2.1-1.5,3.7-3.4,4.6-5.7.3-.7.6-1.1,1.4-1,.6.1.8.9.5,1.7-.2.6-.5,1.2-.8,1.8-.2.4-.2.7.3.9.9.4,1.8.9,2.7,1.3.4.2.6,0,.8-.3.6-.9.7-1.8.2-2.8-.3-.6-.4-1.3.2-1.9.6-.5,1.2-.2,1.7,0,0,0,.1,0,.2,0,.9-1.5,1.7-3,2.7-4.5,5.1-8.2,11.6-15.1,19.5-20.7,1.5-1.1,3-2.3,4.6-3.3.5-.3,1.1-.4,1.4.2.4.6,0,1.1-.5,1.4-1.4,1-2.8,2.1-4.2,3.1-7.3,5.3-13.5,11.5-18.3,19.1-1.1,1.8-2.2,3.6-3.4,5.5.8.1,1.4.3,2,.4,4.7.5,8.7-1,12.3-4,3.5-2.9,6.1-6.6,8.6-10.4,1.4-2.1,2.7-4.3,4.2-6.4,1.9-2.6,4.4-4.6,7.4-5.9.6-.3,1.3-.4,1.7.3.4.7-.1,1.2-.7,1.5-.6.4-1.2.8-1.8,1.1-2.3,1.4-4.1,3.2-5.5,5.4-1.1,1.7-2.1,3.4-3.2,5.1-2.7,4.1-5.5,8-9.4,11.1-4,3.2-8.4,4.8-13.5,4.2-.9-.1-1.7-.3-2.7-.5,2.5,4,5.8,6.8,10.1,8.4,2.6.9,5.2,1.4,8,.6.8-.2,1.5.6,1.2,1.4-.1.3-.3.6-.4.9-1.1,3.5-3.3,6.2-6.5,8-3.5,2-7.4,3-11.4,3.3-3.1.2-6.1,0-9.1-1.1,1.4,1.7,2.7,3.4,4.3,4.9,7.8,7.1,16.8,9.3,26.8,5.9,8.8-3,14.8-9.4,19.3-17.4.3-.5.4-1,.4-1.6.3-2.7.5-5.4.9-8.1,1.2-7.4,3.9-14.3,8.4-20.4.1-.2.3-.5.4-.5.4-.1,1-.3,1.2-.1.2.2.2.8.2,1.2,0,.2-.2.4-.4.6-2.7,3.7-4.9,7.7-6.3,12.1-2.4,7.8-3.2,15.8-2.5,24,.6,6.8,2.3,13.3,5.7,19.2,4.6,8,11,13.4,20.2,15.2,1.6.3,3.3.4,4.9.6,0-.1,0-.2.1-.3-.2-.1-.4-.3-.5-.4-3.8-3-6.3-6.8-7.9-11.3-2.3-6.6-3-13.4-2.8-20.3,0-.2,0-.5.1-.6.3-.3.6-.7.9-.7.3,0,.8.4.9.7.2.6.2,1.2.2,1.9,0,4.6.4,9.1,1.4,13.6.4,1.7.9,3.4,1.5,5.3.4-.3.5-.5.7-.6,2.7-3.1,5-6.4,6.2-10.3,1.2-3.5,2.2-7,3-10.6,1.1-5,1.3-10,.6-15.1-.2-1.3-.5-2.6-.8-3.9-.1-.6,0-1.1.6-1.3.6-.2.9.1,1.2.6.1.3.3.6.4.9,1.2,3.9,3.1,7.5,5,11.1,5,9.3,12.5,15.8,22.4,19.6,4.7,1.8,9.6,2.8,14.3,3.1ZM492.6-309.6c.3.5.4.7.5.9,2.1,3.5,4.5,6.8,7.6,9.6,4.6,4.2,9.7,7.7,15.4,10.1,5.5,2.3,11.1,3.9,17,4.5,4.8.5,9.6,1.3,14.4,1.3,5.2,0,10.3-.6,15.5-1.3,10-1.3,19.3-4.6,27.6-10.5.4-.3.8-.4,1.3-.5,1.5-.2,2.8-.8,3.9-1.9,1.3-1.3,2.2-2.8,2.8-4.6.1-.4.4-.8.6-1.2,1.3-1.9,2.6-3.7,3.8-5.6.2-.2.3-.5.5-.9-1.1.4-1.9.7-2.7,1-.3,0-.6,0-1,0,0-.4-.1-.9,0-1.2,0-.2.5-.4.8-.5,3.8-1.4,7.1-3.6,9.6-6.9,1.4-1.9,2.6-4,3.2-6.3.2-.6.5-1.1,1.2-1,.7.1.8.7.7,1.3-.1.6-.2,1.2-.5,1.7-1.5,3.8-3.7,7-7,9.4-.3.2-.5.7-.6,1-.6,3.7-1.7,7.2-3.1,10.7-2.9,6.9-7.3,12.6-13.7,16.5,0,0-.1.1-.2.3.3,0,.5,0,.8,0,.1,0,.3,0,.4,0,4.5-.6,8.6-2.4,12.4-4.9,6.3-4.2,10.6-10.1,13.6-17,2.2-5.1,3.2-10.5,3.5-16,0-1.7,0-3.4,0-4.9-2.8-.7-5.5-1.3-8-1.9.2.2.7.5,1,.9.2.2.3.7.2,1-.1.3-.6.5-.9.5-2,0-3.9-.2-5.9-.3-1.4-.1-2.8-.4-4.3-.5-.3,4.2-1.5,8-3.9,11.5-1.1-.9-1.2-1.1-.6-2.2,1.4-2.9,2.3-5.9,2.5-9.1,0-.2,0-.5,0-.7,0,0-.2,0-.3,0,.5,1.1-.2,1.6-.9,2-.9.5-1.9.9-2.8,1.4-.5.3-.9.6-1.3,1.1-.7.9-1.3,1.8-2,2.7-.5.6-1.1,1-1.9,1-.3,0-.6,0-.9,0,0-.3,0-.7.1-1,.4-1.3.8-2.5,1.3-3.7.2-.6,0-.9-.5-1.1-2.4-.8-4.7-1.7-7.1-2.5-.6-.2-1.2-.3-1.9-.5,0,1.9,0,3.6,0,5.3,0,2.9-.3,5.8-1.3,8.5-.6,1.7-1.7,2.8-3.5,3-1.6.2-3.3.3-5,0-3.5-.4-5-1.9-5.3-5.4-.3-3.1-.2-6.2-.3-9.3,0-.3,0-.6,0-1.2-1.6,1-3.1,1.9-4.4,2.9-.7.5-1.2.9-1.9.4-1.2,1.4-2.3,2.7-3.4,4-.2.2-.2.6-.1.8,2.1,4.1,5.1,7.2,9.1,9.4.5.3.9.6.8,1.2-.1.6-.6.9-1.2.9-2.2,0-4.4.1-6.5,0-4.4-.4-8.7-1.5-12.4-4-.3-.2-.9-.2-1.2-.1-1.5.4-2.9.9-4.4,1.2-2.3.4-4.6.3-6.9-.6-.5-.2-1.1-.6-.9-1.2.1-.4.6-.8,1-.9,1.5-.6,3.1-1.2,4.6-1.8.6-.3,1.2-.7,1.7-1-2-2.7-3.9-5.2-5.8-7.8-.8.6-.9.5-1.8-.1-1.4-1-2.9-1.9-4.6-3,0,.7,0,1.1,0,1.4-.1,3.2-.1,6.4-.4,9.6-.2,2.8-2,4.5-4.7,4.9-1.4.2-2.8.2-4.2.2-3.1,0-4.3-1.1-5.1-4.1-.9-3.5-1.1-7.2-1-10.8,0-.7,0-1.4,0-2.1-.2,0-.4,0-.5,0-2.9,1-5.8,2-8.8,3-.5.2-.5.5-.4.9.4,1.2.8,2.3,1.1,3.5,0,.2,0,.7,0,.8-.8.7-1.5.6-2.2-.2-.2-.2-.4-.4-.5-.6-1.3-2.3-3.1-3.7-5.5-4.7-.7-.3-1.5-.6-1.3-1.6.2-1,1.1-.9,1.9-1,2.2-.3,4.5-.6,6.6-1.5,1.2-.5,2.4-.9,3.6-1.3,8.5-2.7,16.9-2.6,25,1.6.1,0,.3,0,.5.1,0-.2,0-.3,0-.3-.9-3.2-1.8-6.5-2.7-9.7,0-.2-.4-.6-.6-.6-2-.2-4-.5-6.1-.6-.2,0-.5.2-.7.4-1.2,1.1-2.4,2.2-3.7,3.2-6.2,4.7-13.2,6.9-21,6.1-.9-.1-1.8-.2-2.6-.4,0,0-.1,0-.1.1,0,.2,0,.3,0,.5-.6,5.2.7,9.9,3.3,14.4.6,1,.5,1.3-.5,2,0,0-.1,0-.2,0-.1-.1-.2-.3-.3-.4-1.6-2.2-2.8-4.7-3.5-7.3-.9-3-1-6-.7-9,0-.5,0-.8-.6-1-5.5-1.6-10-4.8-13.7-9.2-.5-.6-1-1.2-1.5-1.8,0,.2-.1.3-.1.4-1.6,7.4-2.4,14.8-1.9,22.3.5,6.5,2.2,12.7,5.3,18.4,4.6,8.3,11.3,14.2,20.5,17.1,1.5.5,3.1.6,4.6,1,0,0,0-.2,0-.3-.2-.1-.3-.2-.5-.3-3.1-2-5.9-4.4-8.2-7.3-4.6-5.8-7.2-12.5-8.4-19.7,0-.4-.4-.8-.7-1.1-1.2-1.2-2.6-2.3-3.7-3.7-1.8-2.1-3.1-4.6-3.7-7.3-.1-.6,0-1.3.7-1.4.7-.1,1,.3,1.2,1,.9,3.4,2.7,6.2,5.2,8.6,2.2,2.1,4.8,3.5,7.6,4.6.8.3.7.8.5,1.4-.2.7-.7.3-1.1.2-.7-.2-1.4-.5-2.4-.8ZM502.9-354.6c-7.6,0-13.2-3.6-17.6-9.5-2.4,4.9-4.4,9.9-5.8,15-.6,2-.6,2,1.5,2.6,2.4.6,4.9.6,7.3.4,3.6-.4,7.1-1.4,10.2-3.3,2-1.2,3.3-3,4.4-5.1ZM495.8-398.5c0,0,.1,0,.2.1,15-12.6,31.4-14.2,49-6.1-3.5-4.1-7.5-7.5-12.8-9-4.7-1.4-9.5-1.1-14.2,0-7.2,1.7-13.6,4.8-18.5,10.4-1.3,1.5-2.5,3.1-3.7,4.6ZM511.5-425.3c15.4.9,26.8,8.9,36.7,19.8-1.6-8.3-7-15.6-14.1-18.9-7.3-3.4-14.8-3.4-22.5-.9ZM512.5-269.9c0-2.5,1-4.7,2.1-6.9.5-1,.7-2.2,1-3.3,0-.2-.2-.6-.3-.6-1.6,0-2.8-1.4-4.6-.8-1.4.5-3.1.2-4.7.2-.6,0-1.2,0-1.5-.1-.2.6-.3,1.1-.5,1.6-.8,1.6-1.6,3.1-2.3,4.8-.5,1.2-.8,2.6-1.2,3.8-.6,1.8-1.8,3-3.6,3.6-.1,0-.3.1-.4.2,0,0,0,.2,0,.3.8.1,1.5.4,2.3.4,1.3,0,1.5.2,1.9,1.5.4,1.6.9,3.1,2,4.6.1-.6.2-1.1.3-1.6.7-3.6,2.7-6.4,5.5-8.8.5-.5.7-.9.5-1.6-.2-1.4-.3-2.8-.2-4.2,0-.9.8-1.5,1.4-1,.3.3.5.9.5,1.3,0,2.4.5,4.6,1.9,6.6ZM597.7-327.8c0,0,0-.2,0-.3,0,0-.1,0-.2-.1-7.3-2.3-13.7-6.2-19.1-11.7-.2-.2-.4-.3-.6-.3-3.3.1-6.5.3-9.8.4-.5,0-.7.3-.8.8-1,3-2,6-2.9,9,0,.2-.1.4-.2.7.3-.1.5-.2.7-.3,5.3-2.5,10.9-3.2,16.7-2.5,4.1.5,8,1.8,11.9,3.2,1.4.5,2.9.7,4.4,1.1ZM579.3-405.6c-.2-.1-.3-.2-.5-.3-6.7-4.5-14-5.9-21.8-3.7-2.2.6-4.2,1.6-6.3,2.5-.3.1-.8.5-.7.7.2,1.2.4,2.3.7,3.5,4.5-2.1,9.2-3.3,14.1-3.7,4.9-.4,9.7.2,14.5,1ZM481.9-383.9c-5.2,1.6-9.9,1-14.2-2.8,1.2,3.8,2.9,6.8,6.3,8.7.9.5,1.9.6,2.9.8.3,0,.8-.2,1-.5,1.4-2,2.7-4,4-6.1ZM569.7-276.4c-.2.2-.5.4-.6.6-1.6,1.6-3.1,3.3-4.7,4.8-.9.8-1.1,1.7-.8,2.7.4,1.5.9,2.9,1.2,4.5.1.6.4.7.9.7.9,0,1.7,0,2.6-.2.3,0,.7-.2,1-.4,1.8-1.1,3.5-2.3,5.2-3.4.2-.1.5-.3.8-.4-.2-.3-.3-.5-.4-.7-.6-1.1-1.4-1.2-2.3-.3-.7.7-1.5,1.4-2.3,2-1.2.8-2.5.5-3.3-.8-1.3-2.1-.8-3.7,1.3-4.8.8-.4,1.7-.7,2.5-1.1-.4-1.1-.7-2.1-1.1-3.2ZM518.9-285.4c-11.5-4.1-20.4-11.5-27.2-21.7,1,8.7,16.8,21.3,27.2,21.7ZM518.7-422.3c-2.9-.8-5.8-1-8.7-.8-3.1.2-5.8,1.3-7.7,3.9-1.2,1.5-2.4,3.1-3.5,4.7,0,0,.2.2.2.3,5.9-4.5,12.4-7.3,19.7-8ZM521.1-313.1c.7,0,1.6-.1,2.5-.2,1.2-.2,2.1-.7,2.5-1.9.3-1,.2-1.3-.8-1.7-1.8-.6-3.7-.8-5.6-.3-.5.1-.8.1-1.2-.3-.6-.6-1.6-.4-1.8.4-.4,1.5,0,3.8,2.2,3.9.7,0,1.3,0,2.1.1ZM575.2-313c0,0,0-.1,0-.2.6,0,1.2,0,1.8,0,1.7-.2,2.1-.6,2.6-2.3.1-.5,0-.8-.5-1-1-.3-2-.7-3-.9-1-.2-2,0-3-.3-.7-.2-1.2-.2-1.7.3-.4.4-1,.7-1.5,1.1,0,0,0,.3,0,.5.2,1.2.9,2,2,2.3,1,.3,2.1.3,3.2.5ZM596.2-398.2c1.5,1.2,3,2.3,4.5,3.4.2.1.6,0,.8,0,1-1,2.2-2,3-3.2,1.4-2.2,1.7-4.6.9-7.3-1.4,4.6-4.5,6.7-9.2,7.1ZM531.8-270.3c-2.9-1.6-5.8-3.2-8.7-4.8-.5.8-1,1.6-1.6,2.5,2.8,1.6,5.7,2.5,8.7,3.4,1.3.4,1.4.4,1.6-1ZM559.9-274.9c0,0,0-.2.1-.3-.2-.2-.4-.4-.7-.5-1.7-.5-1.9-.8-1.9-2.5,0-.5-.2-.8-.7-.8-1.3,0-2.4-.6-3.2-1.6-.2-.2-.5-.3-.8-.5-.1.2-.3.5-.4.7-.1,1.7.4,3.2,1.8,4.3.4.3.9.3,1.3.5,1.4.9,2.9.7,4.4.5ZM573.4-346.3c-1.4-2.6-2.8-5.1-4.2-7.7-.2,2.8-.3,5.7-.5,8.5,1.6-.3,3.1-.6,4.7-.8ZM568-341.6c2.8-.2,5.6-.3,8.4-.5-.5-.7-.9-1.3-1.4-1.9-.2-.2-.6-.5-.9-.4-1.5.2-3.1.4-4.6.7-1.5.3-1.5.5-1.6,2.1ZM541.1-274.7c-.4-1.8-2.1-2.9-3.9-2.9-.4,0-.9,0-1.2-.3-2.3-1.9-5.1-2.7-7.8-3.8-.6-.2-1,0-1.2.6.2,0,.4.1.5.2,1.7.5,3.2,1.3,4.2,2.9.4.7,1,.9,1.8,1-.5-.8-1-1.5-1.5-2.2,0,0,.2-.2.2-.2,1,.6,2,1.3,3,1.9.5.3,1,.7,1.4.6,1.4-.2,2.4.4,3.3,1.4.2.3.6.4,1.1.8ZM538.2-266.1c0,0-.1-.1-.2-.2-2,.9-4,1.7-6,2.6-.2,0-.4.5-.4.6.1.2.4.5.7.5,1,0,1.9-.1,2.9-.2.3,0,.6-.2.8-.4.8-.9,1.5-1.9,2.2-2.9ZM505.6-286.2c0-1.8,0-1.7-1.3-2.6-1.9-1.4-3.8-2.9-5.6-4.3-.2-.2-.4-.4-.6-.6,2,3.1,4.6,5.5,7.6,7.5ZM526.6-325.2c0-.9-.6-1.6-1.4-1.6-.8,0-1.5.8-1.5,1.7,0,.9.7,1.8,1.6,1.7.8,0,1.4-.8,1.4-1.8ZM581.2-325.2c0-.9-.6-1.7-1.4-1.7-.8,0-1.6.8-1.6,1.7,0,.9.7,1.7,1.5,1.7.8,0,1.5-.7,1.5-1.7ZM529.8-341.3c.2-1-.2-1.5-1-1.7-.6-.2-1.2-.4-1.8-.6-.2,0-.5,0-.6,0-.5.5-.9,1.1-1.4,1.7,1.7.2,3.3.4,4.8.5ZM530.9-275.5c.2.2.5.5.7.7,1.1,1.3,2.8,2.3,2.5,4.5.6-.3,1.1-.5,1.6-.7-1.1-2.2-1.9-4.4-4.8-4.5ZM544.4-313v-.3c-.4-.4-.9-.8-1.5-1.2-.1,0-.4-.1-.5,0-1.3.7-2.5,1.5-3.8,2.3,0,0,0,.2,0,.2,1.9-.3,3.8-.6,5.7-.9ZM531.7-246.7c1-.6,1.6-2,1.1-2.4-.4-.3-1.1-.5-1.6-.4-.3,0-.7.7-.8,1.2-.4,1.2,1,1,1.4,1.7ZM541.8-263.1c0,0,0,.1.1.2.3-.2.6-.3.7-.5,1-1.6,2-3.2,3-4.8.2-.3.4-.7.7-1.2-.8.1-1.2.2-1.4.9-.2.6-.5,1.1-.8,1.7-.7,1.2-1.5,2.5-2.3,3.7ZM521.1-268c0,0,0,.1-.1.2.3.2.6.3.9.5,2.2.9,4.4,1.8,6.7,2.7.2,0,.6,0,.8,0,.2,0,.3-.5.2-.6-.2-.2-.5-.4-.7-.4-2.3-.1-4.4-.8-6.4-1.7-.4-.2-.9-.4-1.3-.6ZM498.2-279.7c.3.7,1,.8,1.7,1,.2,0,.6,0,.7-.2.5-.6.9-1.3,1.2-1.9-1.1.3-2.3.7-3.6,1.1ZM529.5-347.6c0,0-.2,0-.2,0-.5.8-1,1.5-1.6,2.4.6.2,1.2.4,1.8.6v-2.9ZM525.2-258.3c0-.1,0-.2,0-.3-1.4,0-2.8-.2-4.2-.3,0,0,0,.2,0,.3,1.3.7,2.7,1,4.2.3ZM571-258.6c0,0,0,.2,0,.3,1.2.7,3.1.5,4.4-.6-1.6.1-3,.2-4.4.3ZM544.3-280c0,.1.2.3.2.4.3-.1.5-.3.8-.3.3,0,.7-.2,1-.1,1,.3,1.1.3,1.4-.8-.7,0-1.5-.1-2.2,0-.5,0-.9.5-1.3.8ZM563.8-248.2c0,0-.2.2-.3.2.5.7,1,1.4,1.5,2,0,0,.4,0,.5-.2.2-.2.3-.4.6-.7-.8-.5-1.6-1-2.3-1.5ZM531.3-234.9h0c-1-.7-2-1.3-3.1-1.8,0,.1-.2.2-.3.4.3.3.6.8,1,1,.7.3,1.5.3,2.3.5ZM564.8-235.1c0,0,0,.1,0,.2.7-.2,1.3-.4,2-.4.8,0,1.1-.5,1.1-1.5-1.1.6-2.1,1.2-3.1,1.8ZM532.8-260.7c0,.1,0,.3,0,.4,1.2,0,2.4,0,3.5,0,.2,0,.3-.3.6-.6-1.5,0-2.8.2-4.1.2ZM542-234.6c0-.1,0-.3-.1-.4-.8.2-1.6.3-2.3.5,0,0,0,.2,0,.2.8-.2,1.7.2,2.4-.3ZM556.6-234.5c-.8-.2-1.6-.3-2.4-.5q.1.7,2.4.5ZM536.6-255.2c0,0,0-.1,0-.2-.4,0-.8,0-1.1.2-.1,0,0,.5-.1.7,0,0,.2,0,.2,0,.3-.3.7-.5,1-.8ZM554.6-268.8c.2-.4.4-.7.4-1,0-.1-.4-.4-.5-.4-.2,0-.4.4-.4.5,0,.2.3.4.5.8ZM526.9-252.1c0,0-.2,0-.3,0,0,.3,0,.7.1.8.2.2.6,0,.9,0,0,0,0-.1,0-.2-.3-.2-.5-.5-.8-.7Z"/>
    <path class="cls-10" d="M609.7-327.8c-4.8-.3-9.6-1.3-14.3-3.1-9.8-3.8-17.3-10.3-22.4-19.6-1.9-3.6-3.8-7.2-5-11.1,0-.3-.2-.6-.4-.9-.2-.5-.6-.8-1.2-.6-.6.2-.7.7-.6,1.3.3,1.3.6,2.6.8,3.9.7,5.1.5,10.1-.6,15.1-.8,3.6-1.9,7.1-3,10.6-1.3,3.9-3.6,7.2-6.2,10.3-.1.2-.3.3-.7.6-.5-1.9-1.1-3.6-1.5-5.3-1-4.5-1.4-9-1.4-13.6,0-.6,0-1.3-.2-1.9-.1-.3-.6-.7-.9-.7-.3,0-.7.4-.9.7-.1.1-.1.4-.1.6-.2,6.9.5,13.7,2.8,20.3,1.6,4.5,4.1,8.3,7.9,11.3.2.1.4.3.5.4,0,.1,0,.2-.1.3-1.6-.2-3.3-.2-4.9-.6-9.2-1.8-15.7-7.2-20.2-15.2-3.4-5.9-5-12.4-5.7-19.2-.8-8.2,0-16.2,2.5-24,1.4-4.4,3.6-8.4,6.3-12.1.1-.2.4-.4.4-.6,0-.4,0-1-.2-1.2-.2-.2-.8,0-1.2.1-.2,0-.3.3-.4.5-4.4,6.1-7.2,12.9-8.4,20.4-.4,2.7-.6,5.4-.9,8.1,0,.5-.2,1.1-.4,1.6-4.5,7.9-10.4,14.4-19.3,17.4-10,3.4-19,1.2-26.8-5.9-1.6-1.4-3-3.2-4.3-4.9,3,1.1,6,1.3,9.1,1.1,4-.3,7.9-1.3,11.4-3.3,3.2-1.8,5.4-4.5,6.5-8,0-.3.3-.6.4-.9.3-.8-.4-1.6-1.2-1.4-2.7.8-5.4.3-8-.6-4.3-1.6-7.6-4.4-10.1-8.4,1,.2,1.8.4,2.7.5,5.1.6,9.6-1,13.5-4.2,3.8-3.1,6.7-7,9.4-11.1,1.1-1.7,2.2-3.4,3.2-5.1,1.4-2.2,3.3-4,5.5-5.4.6-.4,1.2-.8,1.8-1.1.6-.4,1.1-.8.7-1.5-.4-.7-1-.6-1.7-.3-3,1.2-5.5,3.2-7.4,5.9-1.5,2.1-2.8,4.3-4.2,6.4-2.5,3.8-5.1,7.4-8.6,10.4-3.6,3-7.6,4.5-12.3,4-.6,0-1.2-.2-2-.4,1.2-1.9,2.2-3.8,3.4-5.5,4.8-7.6,11-13.9,18.3-19.1,1.4-1,2.8-2.1,4.2-3.1.5-.4.9-.8.5-1.4-.4-.6-1-.5-1.4-.2-1.5,1.1-3,2.2-4.6,3.3-7.8,5.6-14.4,12.5-19.5,20.7-.9,1.5-1.8,3-2.7,4.5-.1,0-.2,0-.2,0-.6-.3-1.2-.6-1.7,0-.6.6-.6,1.3-.2,1.9.5,1,.4,1.9-.2,2.8-.2.4-.4.5-.8.3-.9-.5-1.8-.9-2.7-1.3-.4-.2-.5-.5-.3-.9.3-.6.6-1.2.8-1.8.3-.8,0-1.6-.5-1.7-.7-.2-1.1.3-1.4,1-1,2.3-2.5,4.2-4.6,5.7.5-1.6.8-3.3,1.5-4.8,7.7-18.6,21.1-30.8,40.8-35.7.6-.2,1.3-.2,1.9-.3.6,0,1.2-.3,1.1-1.1,0-.8-.7-1-1.3-.9-1.9.4-3.9.7-5.8,1.3-2.2.7-4.3,1.5-6.5,2.3-.1,0-.3,0-.4,0,.4-.2.7-.4,1.1-.6,9.8-4.9,19.8-5.6,30.3-2.5,4.3,1.3,8.4,3.1,12,5.8,1.1.8,1.8.6,2.5-.6.2-.4.7-.7,1.2-.8,2.5-.9,5.1-1.9,7.7-2.5,8.2-1.9,16.3-1,24.2,1.8,14.4,5.3,24.7,15.3,31.3,29.1,2.2,4.6,4,9.3,6.1,14,1.2,2.6,2.5,5.2,4.7,7.1,1.1.9,2.3,1.8,3.6,2.4,1.7.8,3.5.6,5-.8-.4,4.6-3.7,9-8,10.3-.6.2-1.3.1-1.9-.1-4.4-2-7.3-5.5-9.5-9.6-2.4-4.4-3.9-9.1-5.6-13.7-1.7-4.5-3.6-8.9-6.1-13,0,0,0-.1,0-.1-.6-.9-1.1-1.2-1.7-.9-.6.3-.6.9-.1,1.9,1.5,3.1,3.2,6.2,4.5,9.3,1.6,3.8,2.9,7.7,4.4,11.5,1.6,4.1,3.4,8,6.3,11.3,4.1,4.8,9.3,7.2,15.7,7.2.6,0,1.3,0,1.9-.2.6-.1,1.1-.3,1.7-.5,0,0,0,.1.1.2-1,.9-1.9,1.9-2.9,2.8-7.1,5.7-16.2,5.9-23.7.6-2.9-2-5.1-4.5-6.7-7.8-3.1-6.3-5.3-12.9-7.2-19.6-1.8-6.2-3.6-12.4-6.2-18.3-1.8-4.1-3.9-7.9-7.1-11.1-3.8-4-8.6-6.2-13.9-7.7-1.5-.4-3-.8-4.6-1.3,1.4,0,2.8.1,4.3.3,10.9,1.4,19.6,7,27,14.9.8.8,1.3,1.1,1.8.6.5-.4.5-1.1-.3-1.9-4.2-4.9-9.3-8.5-14.9-11.4-5.9-3.1-12.2-4.6-18.9-4.4-3.2,0-6.4.5-9.5,1.3-.4.1-.8.2-1.1.4-.6.2-1,.5-.8,1.2.2.6.7.7,1.3.7,1.9,0,3.7-.2,5.6,0,5.5.3,10.8,1.6,15.8,4,5.6,2.7,9.3,7.2,12.1,12.6,2.8,5.5,4.6,11.3,6.3,17.2,1.9,6.5,3.7,13,6.4,19.2,2.1,4.9,4.6,9.6,8.3,13.6.9.9,1.7,1.9,2.5,2.7Z"/>
    <path class="cls-10" d="M492.6-309.6c1,.3,1.7.6,2.4.8.4.1.9.4,1.1-.2.2-.6.3-1.1-.5-1.4-2.8-1-5.4-2.5-7.6-4.6-2.5-2.4-4.3-5.3-5.2-8.6-.2-.6-.5-1.1-1.2-1-.8.2-.8.8-.7,1.4.6,2.7,1.9,5.2,3.7,7.3,1.1,1.3,2.5,2.4,3.7,3.7.3.3.6.7.7,1.1,1.3,7.2,3.9,13.9,8.4,19.7,2.3,2.9,5,5.3,8.2,7.3.2.1.3.2.5.3,0,0,0,.2,0,.3-1.5-.3-3.1-.5-4.6-1-9.2-2.8-15.9-8.7-20.5-17.1-3.2-5.7-4.9-11.9-5.3-18.4-.5-7.5.3-15,1.9-22.3,0-.1,0-.2.1-.4.6.7,1,1.2,1.5,1.8,3.7,4.3,8.2,7.5,13.7,9.2.6.2.6.6.6,1-.3,3-.1,6.1.7,9,.8,2.6,2,5.1,3.5,7.3,0,.1.2.3.3.4,0,0,.1,0,.2,0,1-.7,1.1-1,.5-2-2.6-4.5-3.8-9.2-3.3-14.4,0-.2,0-.3,0-.5,0,0,0,0,.1-.1.9.1,1.8.3,2.6.4,7.8.9,14.8-1.4,21-6.1,1.3-1,2.5-2.1,3.7-3.2.2-.2.5-.4.7-.4,2,.2,4,.4,6.1.6.2,0,.6.3.6.6.9,3.2,1.8,6.5,2.7,9.7,0,0,0,.2,0,.3-.2,0-.3,0-.5-.1-8.1-4.2-16.5-4.2-25-1.6-1.2.4-2.5.7-3.6,1.3-2.1,1-4.3,1.2-6.6,1.5-.7.1-1.7,0-1.9,1-.2.9.6,1.3,1.3,1.6,2.4.9,4.3,2.4,5.5,4.7.1.2.3.4.5.6.7.8,1.4.8,2.2.2.2-.1.2-.6,0-.8-.3-1.2-.7-2.3-1.1-3.5-.1-.4,0-.7.4-.9,2.9-1,5.8-2,8.8-3,.1,0,.3,0,.5,0,0,.7,0,1.4,0,2.1-.2,3.7,0,7.3,1,10.8.8,3,2,4,5.1,4.1,1.4,0,2.8,0,4.2-.2,2.7-.4,4.5-2.1,4.7-4.9.2-3.2.3-6.4.4-9.6,0-.4,0-.7,0-1.4,1.7,1.1,3.2,2,4.6,3,.9.7,1.1.7,1.8.1,1.9,2.6,3.8,5.1,5.8,7.8-.5.3-1,.8-1.7,1-1.5.6-3.1,1.2-4.6,1.8-.4.2-.9.5-1,.9-.2.6.3,1,.9,1.2,2.2.9,4.5.9,6.9.6,1.5-.2,2.9-.8,4.4-1.2.4,0,.9,0,1.2.1,3.8,2.5,8,3.6,12.4,4,2.2.2,4.3,0,6.5,0,.6,0,1.1-.2,1.2-.9.1-.6-.3-.9-.8-1.2-4-2.2-7.1-5.3-9.1-9.4-.1-.2,0-.6.1-.8,1.1-1.3,2.2-2.6,3.4-4,.7.5,1.3,0,1.9-.4,1.3-1,2.8-1.8,4.4-2.9,0,.6,0,.9,0,1.2,0,3.1,0,6.2.3,9.3.3,3.5,1.8,5,5.3,5.4,1.6.2,3.3,0,5,0,1.8-.2,2.9-1.3,3.5-3,.9-2.8,1.2-5.7,1.3-8.5,0-1.7,0-3.5,0-5.3.6.2,1.2.3,1.9.5,2.4.8,4.7,1.7,7.1,2.5.6.2.7.5.5,1.1-.4,1.2-.9,2.5-1.3,3.7,0,.3,0,.7-.1,1,.3,0,.6,0,.9,0,.8,0,1.4-.4,1.9-1,.7-.9,1.3-1.8,2-2.7.3-.4.8-.8,1.3-1.1.9-.5,1.9-.9,2.8-1.4.8-.4,1.4-.9.9-2,0,0,.2,0,.3,0,0,.2,0,.5,0,.7-.2,3.2-1.1,6.2-2.5,9.1-.6,1.1-.5,1.3.6,2.2,2.4-3.4,3.6-7.3,3.9-11.5,1.5.2,2.9.4,4.3.5,2,.2,3.9.3,5.9.3.3,0,.7-.3.9-.5.1-.3,0-.8-.2-1-.3-.4-.8-.7-1-.9,2.5.6,5.2,1.2,8,1.9,0,1.5,0,3.2,0,4.9-.2,5.5-1.3,10.9-3.5,16-3,6.9-7.2,12.8-13.6,17-3.8,2.5-7.9,4.3-12.4,4.9-.1,0-.3,0-.4,0-.2,0-.5,0-.8,0,0-.1.1-.2.2-.3,6.5-3.9,10.8-9.6,13.7-16.5,1.5-3.4,2.6-7,3.1-10.7,0-.4.3-.8.6-1,3.3-2.4,5.5-5.6,7-9.4.2-.6.3-1.1.5-1.7.1-.6,0-1.2-.7-1.3-.7-.1-1,.3-1.2,1-.6,2.3-1.7,4.4-3.2,6.3-2.5,3.3-5.8,5.4-9.6,6.9-.3.1-.7.3-.8.5-.1.4,0,.8,0,1.2.3,0,.7,0,1,0,.8-.3,1.7-.6,2.7-1-.2.4-.3.7-.5.9-1.3,1.9-2.6,3.7-3.8,5.6-.3.4-.5.8-.6,1.2-.6,1.7-1.4,3.3-2.8,4.6-1.1,1-2.4,1.6-3.9,1.9-.4,0-.9.2-1.3.5-8.3,5.9-17.6,9.2-27.6,10.5-5.1.7-10.3,1.3-15.5,1.3-4.8,0-9.6-.7-14.4-1.3-5.9-.7-11.5-2.3-17-4.5-5.8-2.4-10.9-5.8-15.4-10.1-3-2.8-5.5-6.1-7.6-9.6-.1-.2-.3-.5-.5-.9Z"/>
    <path class="cls-10" d="M502.9-354.6c-1.1,2.2-2.5,3.9-4.4,5.1-3.1,2-6.6,2.9-10.2,3.3-2.5.3-4.9.3-7.3-.4-2.1-.5-2.1-.6-1.5-2.6,1.5-5.1,3.5-10.1,5.8-15,4.4,5.9,10,9.5,17.6,9.5Z"/>
    <path class="cls-10" d="M495.8-398.5c1.2-1.5,2.4-3.1,3.7-4.6,5-5.6,11.4-8.7,18.5-10.4,4.7-1.1,9.5-1.4,14.2,0,5.3,1.6,9.3,4.9,12.8,9-17.6-8.1-34-6.5-49,6.1,0,0-.1,0-.2-.1Z"/>
    <path class="cls-10" d="M511.5-425.3c7.7-2.5,15.2-2.5,22.5.9,7.2,3.3,12.6,10.5,14.1,18.9-9.9-10.9-21.3-18.9-36.7-19.8Z"/>
    <path class="cls-10" d="M512.5-269.9c-1.4-2-1.9-4.2-1.9-6.6,0-.4-.2-1-.5-1.3-.6-.4-1.4.1-1.4,1,0,1.4,0,2.8.2,4.2.1.7,0,1.1-.5,1.6-2.8,2.3-4.7,5.2-5.5,8.8,0,.5-.2.9-.3,1.6-1-1.5-1.6-3-2-4.6-.3-1.3-.6-1.4-1.9-1.5-.8,0-1.5-.3-2.3-.4,0,0,0-.2,0-.3.1,0,.3-.1.4-.2,1.8-.6,3-1.9,3.6-3.6.4-1.3.7-2.6,1.2-3.8.7-1.6,1.5-3.2,2.3-4.8.2-.5.3-1,.5-1.6.4,0,.9.1,1.5.1,1.6,0,3.2.3,4.7-.2,1.8-.6,3,.7,4.6.8.1,0,.3.4.3.6-.3,1.1-.4,2.3-1,3.3-1.1,2.2-2,4.4-2.1,6.9Z"/>
    <path class="cls-10" d="M597.7-327.8c-1.5-.4-3-.6-4.4-1.1-3.9-1.5-7.8-2.7-11.9-3.2-5.8-.7-11.4,0-16.7,2.5-.2,0-.4.2-.7.3,0-.3.1-.5.2-.7,1-3,2-6,2.9-9,.1-.5.3-.8.8-.8,3.3-.1,6.5-.3,9.8-.4.2,0,.5.2.6.3,5.4,5.5,11.7,9.4,19.1,11.7,0,0,.1,0,.2.1,0,0,0,.2,0,.3Z"/>
    <path class="cls-10" d="M579.3-405.6c-4.8-.8-9.6-1.4-14.5-1-4.9.4-9.6,1.5-14.1,3.7-.2-1.2-.5-2.3-.7-3.5,0-.2.4-.6.7-.7,2.1-.9,4.1-1.9,6.3-2.5,7.8-2.2,15.1-.8,21.8,3.7.2.1.3.2.5.3Z"/>
    <path class="cls-10" d="M481.9-383.9c-1.4,2.1-2.7,4.1-4,6.1-.2.3-.7.6-1,.5-1-.2-2-.3-2.9-.8-3.4-1.8-5.1-4.9-6.3-8.7,4.3,3.8,9.1,4.4,14.2,2.8Z"/>
    <path class="cls-10" d="M569.7-276.4c.4,1.1.7,2.1,1.1,3.2-.8.4-1.7.7-2.5,1.1-2.1,1.1-2.6,2.8-1.3,4.8.8,1.3,2.1,1.6,3.3.8.8-.6,1.6-1.3,2.3-2,.9-.9,1.7-.8,2.3.3.1.2.3.4.4.7-.3.1-.5.3-.8.4-1.7,1.1-3.5,2.3-5.2,3.4-.3.2-.6.4-1,.4-.9,0-1.7.1-2.6.2-.5,0-.8,0-.9-.7-.3-1.5-.8-3-1.2-4.5-.3-1.1-.1-1.9.8-2.7,1.6-1.5,3.1-3.2,4.7-4.8.2-.2.4-.4.6-.6Z"/>
    <path class="cls-10" d="M518.9-285.4c-10.3-.4-26.1-13-27.2-21.7,6.7,10.2,15.6,17.6,27.2,21.7Z"/>
    <path class="cls-10" d="M518.7-422.3c-7.4.7-13.9,3.5-19.7,8,0,0-.2-.2-.2-.3,1.2-1.6,2.4-3.1,3.5-4.7,2-2.5,4.6-3.6,7.7-3.9,2.9-.2,5.8,0,8.7.8Z"/>
    <path class="cls-10" d="M521.1-313.1c-.8,0-1.5-.1-2.1-.1-2.2,0-2.7-2.4-2.2-3.9.2-.8,1.2-1,1.8-.4.4.4.7.4,1.2.3,1.9-.5,3.7-.3,5.6.3,1,.3,1.1.7.8,1.7-.4,1.2-1.4,1.7-2.5,1.9-.9.1-1.8.2-2.5.2Z"/>
    <path class="cls-10" d="M575.2-313c-1.1-.2-2.2-.2-3.2-.5-1.1-.3-1.9-1.1-2-2.3,0-.2,0-.4,0-.5.5-.4,1.1-.7,1.5-1.1.5-.5,1-.5,1.7-.3,1,.2,2,.2,3,.3,1,.2,2,.6,3,.9.5.2.6.5.5,1-.5,1.6-.9,2.1-2.6,2.3-.6,0-1.2,0-1.8,0,0,0,0,.1,0,.2Z"/>
    <path class="cls-10" d="M596.2-398.2c4.6-.4,7.8-2.6,9.2-7.1.8,2.6.5,5.1-.9,7.3-.8,1.2-1.9,2.1-3,3.2-.2.2-.6.2-.8,0-1.5-1.1-3-2.2-4.5-3.4Z"/>
    <path class="cls-10" d="M531.8-270.3c-.3,1.4-.3,1.4-1.6,1-3-.9-5.9-1.8-8.7-3.4.5-.9,1.1-1.7,1.6-2.5,2.9,1.6,5.8,3.2,8.7,4.8Z"/>
    <path class="cls-10" d="M559.9-274.9c-1.5.2-3,.4-4.4-.5-.4-.2-1-.2-1.3-.5-1.4-1.1-1.9-2.6-1.8-4.3,0-.3.2-.5.4-.7.3.1.6.2.8.5.8,1,1.8,1.6,3.2,1.6.5,0,.7.2.7.8,0,1.7.3,2,1.9,2.5.3,0,.5.3.7.5,0,0,0,.2-.1.3Z"/>
    <path class="cls-10" d="M573.4-346.3c-1.6.3-3.1.6-4.7.8.2-2.8.3-5.7.5-8.5,1.4,2.5,2.8,5.1,4.2,7.7Z"/>
    <path class="cls-10" d="M568-341.6c0-1.6,0-1.8,1.6-2.1,1.5-.3,3-.5,4.6-.7.3,0,.7.2.9.4.5.6.9,1.2,1.4,1.9-2.9.2-5.7.3-8.4.5Z"/>
    <path class="cls-10" d="M541.1-274.7c-.5-.3-.9-.5-1.1-.8-.9-1-1.9-1.6-3.3-1.4-.4,0-1-.4-1.4-.6-1-.6-2-1.2-3-1.9,0,0-.2.2-.2.2.5.7.9,1.4,1.5,2.2-.8-.1-1.4-.4-1.8-1-.9-1.6-2.4-2.4-4.2-2.9-.2,0-.3,0-.5-.2.2-.6.7-.9,1.2-.6,2.7,1.1,5.5,1.9,7.8,3.8.3.2.8.3,1.2.3,1.8,0,3.5,1.1,3.9,2.9Z"/>
    <path class="cls-10" d="M538.2-266.1c-.7,1-1.4,1.9-2.2,2.9-.2.2-.5.4-.8.4-1,.1-1.9.2-2.9.2-.2,0-.6-.2-.7-.5,0-.1.2-.5.4-.6,2-.9,4-1.7,6-2.6,0,0,.1.1.2.2Z"/>
    <path class="cls-10" d="M505.6-286.2c-3-2.1-5.6-4.5-7.6-7.5.2.2.4.4.6.6,1.9,1.5,3.7,2.9,5.6,4.3,1.3.9,1.3.8,1.3,2.6Z"/>
    <path class="cls-10" d="M526.6-325.2c0,1-.6,1.7-1.4,1.8-.8,0-1.6-.8-1.6-1.7,0-.8.8-1.7,1.5-1.7.8,0,1.4.7,1.4,1.6Z"/>
    <path class="cls-10" d="M581.2-325.2c0,1-.6,1.7-1.5,1.7-.8,0-1.5-.8-1.5-1.7,0-.9.8-1.7,1.6-1.7.8,0,1.4.8,1.4,1.7Z"/>
    <path class="cls-10" d="M529.8-341.3c-1.6-.2-3.1-.3-4.8-.5.5-.6.9-1.2,1.4-1.7.1-.1.4-.1.6,0,.6.2,1.2.4,1.8.6.8.2,1.3.7,1,1.7Z"/>
    <path class="cls-10" d="M530.9-275.5c2.9,0,3.7,2.3,4.8,4.5-.5.2-.9.4-1.6.7.3-2.2-1.4-3.2-2.5-4.5-.2-.3-.5-.5-.7-.7Z"/>
    <path class="cls-10" d="M544.4-313c-1.9.3-3.8.6-5.7.9,0,0,0-.2,0-.2,1.3-.8,2.5-1.5,3.8-2.3.1,0,.4,0,.5,0,.5.4,1,.8,1.5,1.2v.3Z"/>
    <path class="cls-10" d="M531.7-246.7c-.4-.7-1.7-.5-1.4-1.7.1-.4.5-1.1.8-1.2.5,0,1.2,0,1.6.4.5.4-.1,1.8-1.1,2.4Z"/>
    <path class="cls-10" d="M541.8-263.1c.8-1.2,1.5-2.4,2.3-3.7.3-.5.7-1.1.8-1.7.2-.7.7-.8,1.4-.9-.3.5-.4.9-.7,1.2-1,1.6-2,3.2-3,4.8-.2.2-.5.3-.7.5,0,0,0-.1-.1-.2Z"/>
    <path class="cls-10" d="M521.1-268c.4.2.9.4,1.3.6,2,.9,4.1,1.6,6.4,1.7.3,0,.6.2.7.4,0,.1,0,.6-.2.6-.2.1-.6.1-.8,0-2.2-.9-4.4-1.8-6.7-2.7-.3-.1-.6-.3-.9-.5,0,0,0-.1.1-.2Z"/>
    <path class="cls-10" d="M498.2-279.7c1.3-.4,2.5-.7,3.6-1.1-.4.6-.8,1.2-1.2,1.9-.1.1-.5.2-.7.2-.7-.1-1.4-.3-1.7-1Z"/>
    <path class="cls-10" d="M529.5-347.6v2.9c-.6-.2-1.2-.4-1.8-.6.6-.8,1.1-1.6,1.6-2.4,0,0,.2,0,.2,0Z"/>
    <path class="cls-10" d="M525.2-258.3c-1.4.6-2.8.3-4.2-.3,0,0,0-.2,0-.3,1.4,0,2.8.2,4.2.3,0,.1,0,.2,0,.3Z"/>
    <path class="cls-10" d="M571-258.6c1.4-.1,2.8-.2,4.4-.3-1.3,1.1-3.2,1.3-4.4.6,0,0,0-.2,0-.3Z"/>
    <path class="cls-10" d="M544.3-280c.4-.3.9-.7,1.3-.8.7-.1,1.5,0,2.2,0-.4,1-.4,1-1.4.8-.3,0-.7,0-1,.1-.3,0-.5.2-.8.3,0-.1-.2-.3-.2-.4Z"/>
    <path class="cls-10" d="M563.8-248.2c.7.5,1.5.9,2.3,1.5-.2.3-.4.5-.6.7-.1.1-.5.2-.5.2-.5-.7-1-1.4-1.5-2,0,0,.2-.2.3-.2Z"/>
    <path class="cls-10" d="M531.3-234.9c-.8-.2-1.6-.2-2.3-.5-.4-.1-.6-.6-1-1,0-.1.2-.2.3-.4,1,.6,2,1.1,3.1,1.7h0Z"/>
    <path class="cls-10" d="M564.8-235.1c1-.6,2-1.1,3.1-1.8,0,1-.3,1.4-1.1,1.5-.7,0-1.3.3-2,.4,0,0,0-.1,0-.2Z"/>
    <path class="cls-10" d="M532.8-260.7c1.3,0,2.6-.2,4.1-.2-.3.3-.4.6-.6.6-1.2,0-2.4,0-3.5,0,0-.1,0-.3,0-.4Z"/>
    <path class="cls-10" d="M542-234.6c-.7.5-1.6,0-2.4.3,0,0,0-.2,0-.2.8-.2,1.6-.3,2.3-.5,0,.1,0,.3.1.4Z"/>
    <path class="cls-10" d="M556.6-234.5q-2.3.2-2.4-.5c.9.2,1.7.3,2.4.5Z"/>
    <path class="cls-10" d="M536.6-255.2c-.3.3-.7.5-1,.8,0,0-.2,0-.2,0,0-.3,0-.7.1-.7.3-.2.7-.1,1.1-.2,0,0,0,.1,0,.2Z"/>
    <path class="cls-10" d="M554.6-268.8c-.3-.4-.5-.6-.5-.8,0-.2.2-.5.4-.5.1,0,.5.2.5.4,0,.3-.2.5-.4,1Z"/>
    <path class="cls-10" d="M526.9-252.1c.3.2.5.5.8.7,0,0,0,.1,0,.2-.3,0-.7,0-.9,0-.2-.1-.1-.5-.1-.8,0,0,.2,0,.3,0Z"/>
  </g>
  <g>
    <path class="cls-12" d="M1233.1-341.4c-.7-.4-1.1,0-1.5.6-.5.5-1,1.1-1.7,1.4-.9.5-1.9.8-2.9,1.1-1.8.5-3.6.4-5.6,0,.3-.2.5-.3.7-.4,2.2-1.3,3.8-3.1,5-5.3,1.5-2.8,2.2-5.9,2-9.1,0-.5-.4-1.1-.8-1.3-.6-.3-1,.3-1.3.8-.4.6-.7,1.3-1.2,1.9-.7,1-1.7,1.3-2.8.8-.8-.3-1.6-.8-2.3-1.3-2.2-1.6-3.5-3.8-4.6-6.2-1.7-3.8-3.3-7.5-4.8-11.3-3.6-8.8-8.7-16.5-15.8-22.8-.2-.2-.4-.3-.6-.4.6-.6,1.2-1,1.6-1.5,3.2-3.3,4.4-7.2,2.9-11.6-.4-1-1.1-2-1.8-2.9-.4-.5-1.1-.5-1.6-.2s-.4.8-.4,1.1c.4,2.1-.2,3.9-1.6,5.5-2.6,3-7,3-10.2,1.7-2.2-.9-4.3-1.9-6.4-2.8-.4-.2-.8-.4-1.2-.7-3.4-3-7.2-5.3-11.5-6.8-5.9-2.1-11.9-1.5-17.8.3-1.8.6-3.5,1.4-5.3,2.2-.2-.5-.4-1.1-.6-1.8-2.2-6.2-5.8-11.3-11.6-14.6-6.3-3.7-13.2-4.8-20.4-3.7-9.6,1.5-16.5,6.5-20.6,15.3-.5,1.1-.9,2.2-1.2,3.4-.2.5,0,1.1.5,1.4.6.2.9,0,1.3-.5,1-1.1,2-2.2,3.2-3.1,5.4-4.3,11.5-7.1,18.5-7.8,2.4-.2,4.9-.3,7.2.2,3.3.8,6.2,2.8,8.9,4.8,0,0,0,0,0,.1-.2,0-.4-.1-.6-.2-3.7-1.3-7.6-1.6-11.4-1.1-7.8,1-14.8,3.8-20.9,8.8-3.8,3.2-7.1,6.9-9.1,11.5-.6,1.3-1.6,2.5-2.5,3.6-.8.9-1.8,1.6-2.6,2.5-1.4,1.6-3.2,2.8-5.1,3.6-4.3,1.9-8.5,1.7-12.3-1.2-1.1-.8-1.8-2.1-2.7-3.1-.3-.3-.8-.6-1.1-.5-.3,0-.6.6-.8,1-.1.2,0,.5,0,.7.1,3.8,1.5,7,3.8,9.9,1.5,1.9,3.4,3.4,5.8,4,.4.1.9.2,1.3.3-.2.4-.3.6-.4.9-1.8,3.8-3.2,7.6-4,11.7-.2,1.1-.7,1.6-1.6,1.9-5.2,1.8-10,1.1-14.2-2.5-.7-.6-1.2-.6-1.8,0-.7.7-.4,1.5,0,2.2,1,2.1,2.3,4.2,4,5.9,3.2,3.2,7,5.2,11.6,5.7-1.1,2.6-2.7,4.7-4.9,6.4-4,3-8.4,4.5-13.4,4.4-.7,0-1.3.1-1.5.8-.1.5,0,1.2.3,1.6.5.8,1.2,1.5,1.9,2.1,3.6,3.1,7.9,4.6,12.6,5,1.3.1,2.6,0,4.1,0-.3.5-.4.8-.6,1-1.1,1.2-2.1,2.5-3.3,3.6-1.1,1-2.4,1.9-3.6,2.8-1.1.8-1.2,1.7,0,2.3,2.7,1.4,5.6,1.9,8.7,1.5,1.3-.1,2.5-.5,3.7-.7,2.4,16.6,9.8,29.5,26.2,35.8-.7.4-1.5.3-2.2,0-1.2-.3-2.1.4-2.1,1.6,0,2,1.7,3.9,3.6,4.3.2,0,.4.1.7.2-.4,1.4-.8,2.7-1.2,4.1-.5,1.7-1.6,2.5-3.4,2.7-1.4,0-1.9,1-1.3,2.3.9,1.7,2.3,2.5,4.1,2.6.7,0,.8.3,1,.8.7,2.7,2.1,5.1,4,7.2.4.5,1,.8,1.6.4.6-.3.7-.9.6-1.5,0-1.2-.2-2.5,0-3.7.5-3.4,2.5-5.8,4.8-7.9.8.9,1.6,1.9,2.4,2.7.6.5,1.2,1.2,2.1.7.9-.5.7-1.3.6-2.1-.4-2.6.1-5,1.4-7.3.9-1.5,1.4-3,1.4-4.7,0-.2.2-.6.4-.7,1.1-.3,1.9-1.1,2.4-2,1.6.2,3.1.3,4.7.5-.2.4-.5.7-.6,1.1-.2.7-.4,1.5-.3,2.1.2,1-.3,1.6-1.3,1.6-.5,0-1,.3-1.4.6-.2.2-.4.5-.5.8-.8,1.3-1.5,2.7-2.8,3.6-.8.5-.8,1.6-.2,2.4.3.4.7.8,1,1.2-.7,1.2-1.5,2.4-2.1,3.8-1.4,3.2,0,6.9,3.2,8.5,1.7.9,3.5,1.2,5.5.7-.4.6-.8,1.1-1.3,1.5-.5.5-1.2.9-1.7,1.5-.3.4-.5.9-.7,1.4-.2.5-.3,1-.5,1.4-.7,1-1.5,2-2.1,3-.9,1.6-.7,2.6.6,3.8.2.2.4.4.7.5,1.9,1.3,3.8,2.6,5.7,3.9.3.2.6.4.4.9-.8,1.8-.4,3.1,1,4.4.3.2.5.5.7.8.9,1.6,2.2,2.7,4,3.2,3.4.9,6.5.2,9.3-2,.3-.2.5-.5.8-.6,1.3-.6,1.9-1.4,1.7-2.8-.2-1.1.1-2.1.5-3.1.1-.5.4-.8.9-.8.9,0,1.4-.5,1.4-1.4,0-.9,0-1.7.1-2.6s.1-.9.2-1.4c.5.6.7,1.3,1.2,1.6.8.6,1,1.4,1,2.3,0,1,.5,1.4,1.4,1.4s.7.3.9.7c.3,1,.6,2,.5,3.2-.2,1.3.4,2.2,1.6,2.7.2,0,.4.2.6.3,1.6,1.5,3.5,2.2,5.6,2.5,3.4.5,6.2-.8,8.1-3.8,0-.1.1-.3.2-.4,1.1-.8,1.7-1.8,1.8-3.2.8.4,1.4.9,2.1,1.1.5.2,1.1.2,1.6,0,.6-.3.8-.9.6-1.6-.9-4.9-2.9-9.4-5.4-13.7-.4-.8-.9-1.5-.9-2.4,0-1.4,0-2.8,0-4.2,1.6,1.2,3.2,1.8,5,1.7,5.5-.5,8.4-5.9,5.5-10.7-.7-1.2-1.4-2.4-2.1-3.6,2-1.3,2.1-1.8.8-3.7-.9-1.3-1.9-2.5-2.8-3.8-.2-.3-.4-.8-.5-1.1-.4-1.1-.8-2.3-1.3-3.4-.3-.6-.8-1-1.5-.8-.8.2-1.6.6-2.4,1-.2-.2-.5-.5-.9-.9,7.6-1.6,14.7-4,21-8.3,6.3-4.3,11.7-9.5,15.8-16.1,0,.1.1.2.1.2-.1.5-.3,1-.4,1.5-1.5,5-3.8,9.6-7.2,13.6-3.2,3.7-7,6.6-11.6,8.4-.4.2-.8.7-.8,1,0,.3.6.9.9.9,2.2,0,4.4.2,6.5,0,4.9-.6,9.2-2.6,13.2-5.4,8.1-5.6,13-13.4,15.8-22.7,1.6-5.2,2-10.7,1.9-16.1v-1c5.3-.8,8.7-2.2,12.3-5.2,2.6-2.1,4.6-4.7,5.9-7.8.3-.6.3-1.2-.4-1.6ZM1123.7-234.9c-.8-.2-1.6-.2-2.3-.5-.4-.1-.7-.6-1-1,0-.1.2-.2.3-.3,1,.6,2.1,1.1,3.1,1.7,0,0,0,0,0,.1ZM1146.5-235c.9.2,1.7.3,2.4.5q-2.3.2-2.4-.5ZM1163.3-258.4c0,0,0-.2,0-.2,1.4,0,2.8-.2,4.4-.3-1.3,1.1-3.2,1.3-4.4.6Z"/>
    <path class="cls-12" d="M1167.7-259c-1.3,1.1-3.2,1.3-4.4.6,0,0,0-.2,0-.2,1.4,0,2.8-.2,4.4-.3Z"/>
    <path class="cls-12" d="M1123.7-235.1s0,0,0,.1c-.8-.2-1.6-.2-2.3-.5-.4-.1-.7-.6-1-1,0-.1.2-.2.3-.3,1,.6,2.1,1.1,3.1,1.7Z"/>
    <path class="cls-12" d="M1149-234.5q-2.3.2-2.4-.5c.9.2,1.7.3,2.4.5Z"/>
  </g>
  <g>
    <g>
      <path class="cls-6" d="M168.4,154.5c-2.2,5.2-5.7,9.8-10.3,13.7-2.3,1.9-4.6,3.5-7.1,4.8-.4,3.4-1.1,6.7-2,9.8-4,13.5-11.4,24-22,31.3-6.2,4.2-12.4,6.8-18.8,7.9.7,4.5,0,9.1-2.1,13.3-1.2,2.5-2.8,4.7-4.8,6.5.7,2.1,1.2,4.1,1.5,6.2,1.4,8.2-2.7,15.9-10.2,19.1-.6.3-1.3.5-2,.7-4.4,4.5-10.2,6.9-16.6,6.9s-2.6-.1-3.9-.3c-3.4-.5-6.6-1.6-9.4-3.2-4,2.3-8.4,3.5-12.9,3.5s-4.8-.3-7.1-1c-5.1-1.4-9.4-4.5-12.5-9-1.8-1.9-3.2-4.2-4.1-6.6-.1,0-.2-.1-.2-.2h0c0,0,0-.1,0-.1h0c-.4-.4-1.1-.9-1.9-1.7-2.7-2.5-4.5-5.3-5.5-8.4-4.8-.1-9.3-2.2-12.6-5.8-1.8-2-3.3-4-4.5-6.2-3-1.9-5.4-4.6-7-7.9-2.7-5.2-2.8-10.9-.3-15.9-8.5-6.6-14.6-15.5-18.3-26.5-2.2-.5-4.3-1.2-6.3-2.2h0s-.6-.3-.6-.3h0s0,0,0,0c0,0-.2,0-.3-.1l-.6-.3h0c-4.9-3-8-7.9-8.5-13.4,0-.3,0-.5,0-.8-1-.7-1.9-1.4-2.8-2.1-1.6-1.4-3.1-3-4.3-4.6h0s-.4-.6-.4-.6c-2.9-4.3-3.9-9.8-2.5-14.8,1-3.5,3.2-7,6.6-9.4-.5-.8-.9-1.7-1.4-2.6-4.1-8.6-1-16.2,3.2-20.4,2.4-2.4,5.3-4,8.4-4.8-1.1-3.1-1.8-6.3-1.9-9.7-.2-3,.4-5.9,1.7-8.5h0s.2-.4.2-.4c2.4-4.5,6-7.6,10.6-8.8,1.5-.4,2.9-.6,4.4-.6,4.2,0,8.2,1.6,11.4,4.3,0,0,0,0,0,0l.2-.2h0c.1-.1.2-.2.3-.3.4-.8.8-1.6,1.2-2.4-.7-3-.6-6.2.3-9.2v-.3c0,0,.1,0,.1,0,.4-1.3,1-3.1,1.9-5C.3,54.3,11.9,45.7,26.7,43.4c2.6-.4,5.2-.6,7.7-.6,8.2,0,16,2.1,23.1,6.2,4.8,2.8,9,6.5,12.3,11,2.4-.4,4.8-.6,7.1-.6,4.6,0,9,.8,13.3,2.3,4.7,1.7,9.2,4.1,13.3,7.2.9-1.1,1.9-2.1,3.1-2.9,2.9-2.1,6.6-3.3,10.2-3.3,5.4,0,10.4,2.5,13.6,6.8h0s0,0,0,0v.2c.1,0,.2,0,.2,0,1,1.3,2.8,3.7,3.9,7,1.9,5.5,2.1,11.1.5,16.3,4.5,5.7,8.2,12.1,11.1,19.2.8,1.9,1.5,3.6,2.2,5.3,2.5,0,5,.7,7.3,1.9,5.5,2.8,9.1,8.4,9.5,14.5,0,.7,0,1.5,0,2.2,4.5,4.9,5.8,12.1,3,18.5Z"/>
      <use transform="translate(-71.7 24.1) scale(.2)" xlink:href="#image-2"/>
    </g>
    <g>
      <path class="cls-6" d="M169.2,672.2c-2.2,5.2-5.7,9.8-10.3,13.7-2.3,1.9-4.6,3.5-7.1,4.8-.4,3.4-1.1,6.7-2,9.8-4,13.5-11.4,24-22,31.3-6.2,4.2-12.4,6.8-18.8,7.9.7,4.5,0,9.1-2.1,13.3-1.2,2.5-2.8,4.7-4.8,6.5.7,2.1,1.2,4.1,1.5,6.2,1.4,8.2-2.7,15.9-10.2,19.1-.6.3-1.3.5-2,.7-4.4,4.5-10.2,6.9-16.6,6.9s-2.6-.1-3.9-.3c-3.4-.5-6.6-1.6-9.4-3.2-4,2.3-8.4,3.5-12.9,3.5s-4.8-.3-7.1-1c-5.1-1.4-9.4-4.5-12.5-9-1.8-1.9-3.2-4.2-4.1-6.6-.1,0-.2-.1-.2-.2h0c0,0,0-.1,0-.1h0c-.4-.4-1.1-.9-1.9-1.7-2.7-2.5-4.5-5.3-5.5-8.4-4.8-.1-9.3-2.2-12.6-5.8-1.8-2-3.3-4-4.5-6.2-3-1.9-5.4-4.6-7-7.9-2.7-5.2-2.8-10.9-.3-15.9-8.5-6.6-14.6-15.5-18.3-26.5-2.2-.5-4.3-1.2-6.3-2.2h0s-.6-.3-.6-.3h0s0,0,0,0c0,0-.2,0-.3-.1l-.6-.3h0c-4.9-3-8-7.9-8.5-13.4,0-.3,0-.5,0-.8-1-.7-1.9-1.4-2.8-2.1-1.6-1.4-3.1-3-4.3-4.6h0s-.4-.6-.4-.6c-2.9-4.3-3.9-9.8-2.5-14.8,1-3.5,3.2-7,6.6-9.4-.5-.8-.9-1.7-1.4-2.6-4.1-8.6-1-16.2,3.2-20.4,2.4-2.4,5.3-4,8.4-4.8-1.1-3.1-1.8-6.3-1.9-9.7-.2-3,.4-5.9,1.7-8.5h0s.2-.4.2-.4c2.4-4.5,6-7.6,10.6-8.8,1.5-.4,2.9-.6,4.4-.6,4.2,0,8.2,1.6,11.4,4.3,0,0,0,0,0,0l.2-.2h0c.1-.1.2-.2.3-.3.4-.8.8-1.6,1.2-2.4-.7-3-.6-6.2.3-9.2v-.3c0,0,.1,0,.1,0,.4-1.3,1-3.1,1.9-5,6.3-13.3,17.8-22,32.6-24.3,2.6-.4,5.2-.6,7.7-.6,8.2,0,16,2.1,23.1,6.2,4.8,2.8,9,6.5,12.3,11,2.4-.4,4.8-.6,7.1-.6,4.6,0,9,.8,13.3,2.3,4.7,1.7,9.2,4.1,13.3,7.2.9-1.1,1.9-2.1,3.1-2.9,2.9-2.1,6.6-3.3,10.2-3.3,5.4,0,10.4,2.5,13.6,6.8h0s0,0,0,0v.2c.1,0,.2,0,.2,0,1,1.3,2.8,3.7,3.9,7,1.9,5.5,2.1,11.1.5,16.3,4.5,5.7,8.2,12.1,11.1,19.2.8,1.9,1.5,3.6,2.2,5.3,2.5,0,5,.7,7.3,1.9,5.5,2.8,9.1,8.4,9.5,14.5,0,.7,0,1.5,0,2.2,4.5,4.9,5.8,12.1,3,18.5Z"/>
      <use transform="translate(-71 541.8) scale(.2)" xlink:href="#image-2"/>
    </g>
    <g>
      <g>
        <path class="cls-4" d="M327.8,525.8c-.3,0-.6,0-.9,0l.9.8,1.7-.9c-.6,0-1.1,0-1.7,0Z"/>
        <path class="cls-4" d="M440.3,373.6c-.6,2.3-1.4,4.3-2.2,5.9-1.7,3.9-4.7,6.8-8.9,8.7h-.2c0,0-.2.1-.2.1-3.2,1.4-6.4,2.4-9.6,3.1-1,1.3-2.3,2.5-3.6,3.5-.9,2.9-2.5,6.1-5.6,9.3-.7.7-1.4,1.4-2.1,2,4.3,4.7,5.6,11.3,3.4,17.3-1.7,4.5-5.1,8-9.4,9.7-1.8,4-5.2,7.3-9.5,9,0,0-.2,0-.2,0,0,0,0,.2,0,.3,0,4.4-.2,9.2-.3,14.5,1,2.8,1.4,6,1,9.2,0,.5-.2,1-.3,1.6,0,1.2,0,2.4-.2,3.7,0,0,0,0,0,0,0,2.4-.6,4.8-1.5,6.9,1.6,3.5,2.1,7.6,1.3,12,0,.2,0,.3.1.5,1.1,5.2,0,10.3-3,14.4,0,0,0,.1-.1.2-.6,1.8-1.5,3.5-2.6,5-3.3,4.4-8.4,6.9-14.1,6.9s-1.6,0-2.4-.1h-.4c-.2,0-.4,0-.7-.1-.7,0-1.5-.1-2.2-.3-.5,0-1,0-1.5,0s-1.3,0-1.9,0c-2.5-.2-4.7-.9-6-1.2h0s0,0,0,0c-2.5-.8-4.9-2.1-6.8-3.8-1.3,2.5-3,4.5-5.1,6-3.8,4.7-9.5,7.6-15.9,8-.6,0-1.1,0-1.7,0s-.6,0-.9,0c-4.3-.2-8.3-1.4-11.8-3.7-3.6,2.4-8,3.6-12.6,3.6s-1.6,0-2.4-.1c-6.1-.5-11.3-3.3-15.1-7.8-2.2-1.5-4-3.6-5.2-6-1.8,1.7-4.1,3-6.6,3.8h-.1s-.1,0-.1,0c-2,.6-4.2,1-6.5,1.2-.6,0-1.1,0-1.7,0s-1,0-1.5,0c-.8.2-1.5.3-2.3.3-.1,0-.2,0-.3,0-.5,0-1.3.1-2.2.2h0c-.2,0-.4,0-.6,0-5.6,0-10.7-2.5-14-6.8-1.2-1.6-2.1-3.3-2.7-5.2-3-4.1-4.1-9.3-3.1-14.6,0-.2,0-.4.1-.7,0-.2,0-.5-.1-.7-.7-3.9-.2-7.7,1.4-11-.9-2-1.4-4.1-1.5-6.4,0,0,0,0,0,0,0-.4-.1-.8-.2-1.2v-.2s0-.2,0-.2c-.1-1.1-.1-2.1,0-3.1,0-.4-.2-.8-.2-1.3-.5-3.1-.1-6.3.9-9.1-.1-4.4-.2-8.8-.4-13.2v-1.6c0,0,0,0-.1,0-4.4-1.7-7.8-5-9.6-9.1-4.4-2-7.9-5.6-9.4-10.1-2-5.7-.6-12.1,3.5-16.8-4-3.2-6.6-7-7.8-11.3-1.3-1-2.5-2.2-3.6-3.5-3.3-.7-6.6-1.7-9.8-3.1-5.8-2.5-8.8-7.6-10.3-11.5-2-5.3-2-10.2,0-14.6v-.2c0,0,.1-.1.1-.1,2.5-5.1,7.5-8.7,13-9.6.9-1.3,2-2.5,3.3-3.6,3.7-3.1,7.9-5.2,12.7-6.4h0s0,0,0,0c4.1-1,8.2-1.9,12.2-2.8l1.9-.4c5.8-1.3,11.6-2.5,17.4-3.8.8-1,1.7-1.9,2.5-2.8,3.1-3.3,7-5.3,11.1-5.8,2.2-8.1,8.7-13,17.4-13h.5c4.2,0,8.6.1,13.2.7.1-.3.3-.5.4-.8.2-.4.4-.9.6-1.3,2.7-5.5,7.9-9.3,14-10.1h0c.3,0,.9-.1,1.7-.2.6,0,1.5-.1,2.4-.1,8,0,14,3.9,17.8,11.7l.2.3c0,.2.2.3.2.5,3.7-.3,7.3-.5,10.7-.6.9,0,1.8,0,2.7-.1.4,0,.7,0,1,0,8.1,0,14.7,5.2,16.8,13,4.2.5,8,2.5,11,5.8.9.9,1.7,1.9,2.6,3,0,0,0,0,.1,0,3.4.8,6.9,1.6,10.3,2.3,2.9.6,5.8,1.2,8.7,1.8,3.6.8,7.3,1.5,10.9,2.3,5.1,1.1,9.7,3.3,13.6,6.3h0s0,0,0,0c1.5,1.2,2.8,2.6,3.8,4.1,5.1.8,9.3,3.5,12,7.6,2.6,4,3.4,9,2.1,13.8Z"/>
      </g>
      <use transform="translate(186.2 282.1) scale(.2)" xlink:href="#image-4"/>
    </g>
    <g>
      <g>
        <path class="cls-4" d="M327.8,1041.7c-.3,0-.6,0-.9,0l.9.8,1.7-.9c-.6,0-1.1,0-1.7,0Z"/>
        <path class="cls-4" d="M440.3,889.5c-.6,2.3-1.4,4.3-2.2,5.9-1.7,3.9-4.7,6.8-8.9,8.7h-.2c0,0-.2.1-.2.1-3.2,1.4-6.4,2.4-9.6,3.1-1,1.3-2.3,2.5-3.6,3.5-.9,2.9-2.5,6.1-5.6,9.3-.7.7-1.4,1.4-2.1,2,4.3,4.7,5.6,11.3,3.4,17.3-1.7,4.5-5.1,8-9.4,9.7-1.8,4-5.2,7.3-9.5,9,0,0-.2,0-.2,0,0,0,0,.2,0,.3,0,4.4-.2,9.2-.3,14.5,1,2.8,1.4,6,1,9.2,0,.5-.2,1-.3,1.6,0,1.2,0,2.4-.2,3.7,0,0,0,0,0,0,0,2.4-.6,4.8-1.5,6.9,1.6,3.5,2.1,7.6,1.3,12,0,.2,0,.3.1.5,1.1,5.2,0,10.3-3,14.4,0,0,0,.1-.1.2-.6,1.8-1.5,3.5-2.6,5-3.3,4.4-8.4,6.9-14.1,6.9s-1.6,0-2.4-.1h-.4c-.2,0-.4,0-.7-.1-.7,0-1.5-.1-2.2-.3-.5,0-1,0-1.5,0s-1.3,0-1.9,0c-2.5-.2-4.7-.9-6-1.2h0s0,0,0,0c-2.5-.8-4.9-2.1-6.8-3.8-1.3,2.5-3,4.5-5.1,6-3.8,4.7-9.5,7.6-15.9,8-.6,0-1.1,0-1.7,0s-.6,0-.9,0c-4.3-.2-8.3-1.4-11.8-3.7-3.6,2.4-8,3.6-12.6,3.6s-1.6,0-2.4-.1c-6.1-.5-11.3-3.3-15.1-7.8-2.2-1.5-4-3.6-5.2-6-1.8,1.7-4.1,3-6.6,3.8h-.1s-.1,0-.1,0c-2,.6-4.2,1-6.5,1.2-.6,0-1.1,0-1.7,0s-1,0-1.5,0c-.8.2-1.5.3-2.3.3-.1,0-.2,0-.3,0-.5,0-1.3.1-2.2.2h0c-.2,0-.4,0-.6,0-5.6,0-10.7-2.5-14-6.8-1.2-1.6-2.1-3.3-2.7-5.2-3-4.1-4.1-9.3-3.1-14.6,0-.2,0-.4.1-.7,0-.2,0-.5-.1-.7-.7-3.9-.2-7.7,1.4-11-.9-2-1.4-4.1-1.5-6.4,0,0,0,0,0,0,0-.4-.1-.8-.2-1.2v-.2s0-.2,0-.2c-.1-1.1-.1-2.1,0-3.1,0-.4-.2-.8-.2-1.3-.5-3.1-.1-6.3.9-9.1-.1-4.4-.2-8.8-.4-13.2v-1.6c0,0,0,0-.1,0-4.4-1.7-7.8-5-9.6-9.1-4.4-2-7.9-5.6-9.4-10.1-2-5.7-.6-12.1,3.5-16.8-4-3.2-6.6-7-7.8-11.3-1.3-1-2.5-2.2-3.6-3.5-3.3-.7-6.6-1.7-9.8-3.1-5.8-2.5-8.8-7.6-10.3-11.5-2-5.3-2-10.2,0-14.6v-.2c0,0,.1-.1.1-.1,2.5-5.1,7.5-8.7,13-9.6.9-1.3,2-2.5,3.3-3.6,3.7-3.1,7.9-5.2,12.7-6.4h0s0,0,0,0c4.1-1,8.2-1.9,12.2-2.8l1.9-.4c5.8-1.3,11.6-2.5,17.4-3.8.8-1,1.7-1.9,2.5-2.8,3.1-3.3,7-5.3,11.1-5.8,2.2-8.1,8.7-13,17.4-13h.5c4.2,0,8.6.1,13.2.7.1-.3.3-.5.4-.8.2-.4.4-.9.6-1.3,2.7-5.5,7.9-9.3,14-10.1h0c.3,0,.9-.1,1.7-.2.6,0,1.5-.1,2.4-.1,8,0,14,3.9,17.8,11.7l.2.3c0,.2.2.3.2.5,3.7-.3,7.3-.5,10.7-.6.9,0,1.8,0,2.7-.1.4,0,.7,0,1,0,8.1,0,14.7,5.2,16.8,13,4.2.5,8,2.5,11,5.8.9.9,1.7,1.9,2.6,3,0,0,0,0,.1,0,3.4.8,6.9,1.6,10.3,2.3,2.9.6,5.8,1.2,8.7,1.8,3.6.8,7.3,1.5,10.9,2.3,5.1,1.1,9.7,3.3,13.6,6.3h0s0,0,0,0c1.5,1.2,2.8,2.6,3.8,4.1,5.1.8,9.3,3.5,12,7.6,2.6,4,3.4,9,2.1,13.8Z"/>
      </g>
      <use transform="translate(186.2 797.9) scale(.2)" xlink:href="#image-4"/>
    </g>
    <g>
      <path class="cls-9" d="M693.7,607.7c0,0-.2.1-.2.2-3.5,3.1-6.8,6.7-10.3,10.5-.3,1.8-.6,3.5-.9,5.2-.5,2.6-.7,5.3-.6,8.1,0,2.4.1,5.5-.2,8.8-.6,8-5.7,14.5-12.6,17.2-.3,1-.6,1.9-1,2.9,0,0,0,0,0,0-.1.3-.2.6-.3.9,1,2.1,2,3.9,3.2,5.6,3.2,4.8,5,9.7,5.3,14.9.4,4.9-.3,9.8-1.9,14.4-.9,2.7-1.9,5.1-3,7.4,0,0,0,0,0,0-.4.9-.9,1.8-1.4,2.6,1.8,3.5,3,7.3,3.5,11.4.3,2.9.3,5.9,0,8.9,0,0,0,0,0,0-.5,4.1-2.1,7.8-4.7,10.8,0,2-.3,4.1-1,6.1-.6,1.7-1.4,3.3-2.3,4.8,0,0,0,0,0,0-.3.5-.6,1.2-.9,2.2,0,0,0,0,0,0-1.8,5.9-5.9,10.7-11.6,13.4-1.4,5.8-5.1,10.7-10.3,13.4-5.5,2.9-11.1,4.4-16.7,4.4s-5.4-.3-8-1c-1.9-.5-3.7-1.2-5.3-2-.4,1.1-1.1,2.3-1.9,3.5-1.5,3.1-4,5.7-7.2,7.4-1.1.6-3.3,1.7-6.3,2.2-2.9,1.3-6.1,2-9.4,2s-9-1.4-12.7-3.8c-3.6,2.4-8,3.8-12.7,3.8s-6.5-.7-9.4-2c-1.8-.3-3.3-.8-4.5-1.4-1.2-.5-2.1-1-2.6-1.3-2.7-1.6-5-4-6.4-7-.7-1-1.3-2.1-1.8-3.4-3.3,1.7-7,2.7-10.9,2.9-.6,0-1.3,0-1.9,0-5.4,0-10.7-1.2-15.7-3.6-6.2-3-10.3-8-11.8-14.2-5.5-2.6-9.6-7.3-11.6-13.3-.1-.5-.6-1.4-1-2.2-.3-.6-.6-1.2-.8-1.8-.3-.5-.8-1.5-1.3-2.7,0,0,0-.1,0-.2-.8-2.1-1.1-4.3-1.1-6.4-2.7-3.2-4.4-7.3-4.9-12.1-.5-4.6.1-9.5,1.7-14.5.5-1.6,1.2-3.1,2-4.6-.3-.4-.5-.8-.7-1.2-2.4-4.4-4.1-9-5-13.6h-.3c-3.9,0-7.8-1.2-11.1-3.7-1.4-1-3-2.1-4.7-3.1-.4-.3-.9-.6-1.3-.9-.2,0-.3-.2-.4-.2-5.2-2.8-8.6-7.9-9.1-13.6-.4-5.7,2.1-11.1,6.8-14.6,2-1.5,4.2-2.7,6.8-3.8,0-.4-.1-.9-.1-1.3-2.8-2.3-4.7-5.4-5.5-8.7-2.3-2.8-4.2-5.9-5.7-9.5-.8-1.9-1.4-3.8-1.7-5.5-.6-3.2-.4-6.2.6-8.9-.1-1.6-.2-3.2-.3-4.9-.3-6.3.1-12.8,1.5-21.1.6-4.1,1.5-9.4,2.7-14.9.5-2.6,1.3-4.9,2-6.8.2-.5.3-1,.5-1.5,0,0,0,0,0,0,.6-1.9,1.6-3.7,2.9-5.5,2-2.8,4.7-4.8,7.7-6,1.3-1.5,2.5-2.9,3.7-4.1l.6-.7s0,0,.1-.1c1.5-1.6,3-2.6,4-3.3,0,0,0,0,0,0,3-2,6.2-3,9.5-3,2.2-1.2,4.2-2.1,6-2.8,1.6-.7,3.3-1.2,5-1.5.1,0,.2,0,.4,0,.8-.1,1.7-.2,2.5-.2,4.7,0,9,1.8,12.1,5.1,3.2,3.3,4.8,7.8,4.5,12.5,0,0,0,.1,0,.2-.1,2.2-.6,4.5-1.4,6.6-.4,1.2-.9,2.3-1.5,3.5,7-4.2,14.3-8.1,21.9-11.7,14.2-6.7,27.4-11.7,40.2-15.3,3.4-1,6.7-1.4,9.1-1.8.8,0,1.6-.1,2.4-.1,6.4,0,12.3,3.2,16,8.6l.2.2c1.2,1.8,2.7,3.9,4,6.6,1,2.1,2,4.3,3,6.4,4.3,1.4,8,4.6,10.1,8.8,2.6,2.1,4.5,4.9,5.6,8.2,3.5-.5,7.2-.9,11.3-1.3,7.4-.7,15.1-1.1,22.8-1.1s1.9,0,2.8,0c8.1,0,15.5,1,22.8,2.6,0,0,.2,0,.2,0,.7,0,1.8.2,3.1.5,5.6,1.3,10.3,5.7,11.9,11.1h0c1.7,5.8,0,12.3-4.6,16.5Z"/>
      <use transform="translate(444.1 540) scale(.2)" xlink:href="#image"/>
    </g>
    <g>
      <path class="cls-9" d="M693.7,91.8c0,0-.2.1-.2.2-3.5,3.1-6.8,6.7-10.3,10.5-.3,1.8-.6,3.5-.9,5.2-.5,2.6-.7,5.3-.6,8.1,0,2.4.1,5.5-.2,8.8-.6,8-5.7,14.5-12.6,17.2-.3,1-.6,1.9-1,2.9,0,0,0,0,0,0-.1.3-.2.6-.3.9,1,2.1,2,3.9,3.2,5.6,3.2,4.8,5,9.7,5.3,14.9.4,4.9-.3,9.8-1.9,14.4-.9,2.7-1.9,5.1-3,7.4,0,0,0,0,0,0-.4.9-.9,1.8-1.4,2.6,1.8,3.5,3,7.3,3.5,11.4.3,2.9.3,5.9,0,8.9,0,0,0,0,0,0-.5,4.1-2.1,7.8-4.7,10.8,0,2-.3,4.1-1,6.1-.6,1.7-1.4,3.3-2.3,4.8,0,0,0,0,0,0-.3.5-.6,1.2-.9,2.2,0,0,0,0,0,0-1.8,5.9-5.9,10.7-11.6,13.4-1.4,5.8-5.1,10.7-10.3,13.4-5.5,2.9-11.1,4.4-16.7,4.4s-5.4-.3-8-1c-1.9-.5-3.7-1.2-5.3-2-.4,1.1-1.1,2.3-1.9,3.5-1.5,3.1-4,5.7-7.2,7.4-1.1.6-3.3,1.7-6.3,2.2-2.9,1.3-6.1,2-9.4,2s-9-1.4-12.7-3.8c-3.6,2.4-8,3.8-12.7,3.8s-6.5-.7-9.4-2c-1.8-.3-3.3-.8-4.5-1.4-1.2-.5-2.1-1-2.6-1.3-2.7-1.6-5-4-6.4-7-.7-1-1.3-2.1-1.8-3.4-3.3,1.7-7,2.7-10.9,2.9-.6,0-1.3,0-1.9,0-5.4,0-10.7-1.2-15.7-3.6-6.2-3-10.3-8-11.8-14.2-5.5-2.6-9.6-7.3-11.6-13.3-.1-.5-.6-1.4-1-2.2-.3-.6-.6-1.2-.8-1.8-.3-.5-.8-1.5-1.3-2.7,0,0,0-.1,0-.2-.8-2.1-1.1-4.3-1.1-6.4-2.7-3.2-4.4-7.3-4.9-12.1-.5-4.6.1-9.5,1.7-14.5.5-1.6,1.2-3.1,2-4.6-.3-.4-.5-.8-.7-1.2-2.4-4.4-4.1-9-5-13.6h-.3c-3.9,0-7.8-1.2-11.1-3.7-1.4-1-3-2.1-4.7-3.1-.4-.3-.9-.6-1.3-.9-.2,0-.3-.2-.4-.2-5.2-2.8-8.6-7.9-9.1-13.6-.4-5.7,2.1-11.1,6.8-14.6,2-1.5,4.2-2.7,6.8-3.8,0-.4-.1-.9-.1-1.3-2.8-2.3-4.7-5.4-5.5-8.7-2.3-2.8-4.2-5.9-5.7-9.5-.8-1.9-1.4-3.8-1.7-5.5-.6-3.2-.4-6.2.6-8.9-.1-1.6-.2-3.2-.3-4.9-.3-6.3.1-12.8,1.5-21.1.6-4.1,1.5-9.4,2.7-14.9.5-2.6,1.3-4.9,2-6.8.2-.5.3-1,.5-1.5,0,0,0,0,0,0,.6-1.9,1.6-3.7,2.9-5.5,2-2.8,4.7-4.8,7.7-6,1.3-1.5,2.5-2.9,3.7-4.1l.6-.7s0,0,.1-.1c1.5-1.6,3-2.6,4-3.3,0,0,0,0,0,0,3-2,6.2-3,9.5-3,2.2-1.2,4.2-2.1,6-2.8,1.6-.7,3.3-1.2,5-1.5.1,0,.2,0,.4,0,.8-.1,1.7-.2,2.5-.2,4.7,0,9,1.8,12.1,5.1,3.2,3.3,4.8,7.8,4.5,12.5,0,0,0,.1,0,.2-.1,2.2-.6,4.5-1.4,6.6-.4,1.2-.9,2.3-1.5,3.5,7-4.2,14.3-8.1,21.9-11.7,14.2-6.7,27.4-11.7,40.2-15.3,3.4-1,6.7-1.4,9.1-1.8.8,0,1.6-.1,2.4-.1,6.4,0,12.3,3.2,16,8.6l.2.2c1.2,1.8,2.7,3.9,4,6.6,1,2.1,2,4.3,3,6.4,4.3,1.4,8,4.6,10.1,8.8,2.6,2.1,4.5,4.9,5.6,8.2,3.5-.5,7.2-.9,11.3-1.3,7.4-.7,15.1-1.1,22.8-1.1s1.9,0,2.8,0c8.1,0,15.5,1,22.8,2.6,0,0,.2,0,.2,0,.7,0,1.8.2,3.1.5,5.6,1.3,10.3,5.7,11.9,11.1h0c1.7,5.8,0,12.3-4.6,16.5Z"/>
      <use transform="translate(444.1 24.1) scale(.2)" xlink:href="#image"/>
    </g>
    <g>
      <path class="cls-3" d="M937.5,905.5c0,1.5,0,2.8-.1,4,0,.5,0,1.1,0,1.6-.2,8.5-5.4,15.2-13.6,17.5-1.7.5-3.3.8-4.8,1.2l-.8.2-2,.5c.2,1.6.3,3.4.2,5.2,0,.6,0,1.2-.1,1.7,1,2.8,1.5,6.1,1.1,10.1,0,0,0,.1,0,.2,0,0,0,.1,0,.2,1,3.5,1.5,8,.7,13.1,4.2,3.6,5.9,8.6,5.9,12.9,0,7.7-4.8,14.4-12.5,17-1.8.6-3.6,1-5.5,1.2.9,2.4,1.4,4.9,1.2,7.5-.5,7.9-6.8,14.7-14.7,15.8h0c-1.8.3-4.1.6-6.8.6s-.6,0-.9,0c-1.2,0-2.3-.1-3.5-.3-1.2.5-2.4,1-3.6,1.2-.6,6.5-4.1,12.3-9.9,16.3-.1.6-.3,1.2-.5,1.8.4,3.3.2,6.5-.3,9.6-1.9,10.9-11.8,19.1-23,19.1s-4.6-.3-6.8-1c-1-.3-2.1-.7-3-1.1h-.2c-1,0-1.9,0-2.8-.2-.9.2-1.8.2-2.8.2h-.2c-1.5.7-3.1,1.2-4.7,1.6-1.7.4-3.4.6-5.2.6-11.5,0-21.5-8.5-23.1-19.8-.4-2.9-.5-5.8-.2-8.7-.2-.6-.4-1.3-.5-1.9-1.6-1.1-3.2-2.5-4.5-4-2.4-2.8-4.1-6-4.9-9.5-1.2-1.3-2.2-2.8-2.9-4.4h-.3c-6.5,0-13-1.7-19.2-5.1-1.1-.6-4.6-2.5-7.1-6.7-2.8-4.8-3.3-10.6-1.2-15.6.2-.4.3-.7.5-1,.3-1.3.8-2.7,1.6-4.3-3.5-2.7-6.5-6.3-8.6-10.6-1.9-3.7-3.1-7.4-3.7-11.2-2.2-1.6-4.3-3.4-6.2-5.4-1.3-1.2-3.1-3.2-4.3-6.3,0-.2-.1-.4-.2-.5-.5-1.3-1.9-5.4-.9-10.4,0,0,0,0,0-.1.9-3.9,3.1-7.3,6.1-9.7-1.7-.5-3-1.1-3.9-1.5,0,0,0,0-.1,0-6.2-3.2-10-9.5-9.8-16.4,0,0,0,0,0,0,0-.4,0-1.6,0-2-1.2-8.8,3.4-16.9,11.7-20.7,2.5-1.1,5.3-2,8.3-2.7,2.8-.6,5.6-1,8.5-1.4,0-.8,0-1.5,0-2.2-.1-4.7-.4-8.8-.9-12.4-.7-5.7-1.7-11.9-3-19.6-.3-2-.9-4.2-1.5-6.6-.3-1.3-.7-2.7-1-4.1,0,0,0,0,0,0-.4-1.7-.7-3.3-.9-4.8-.6-3.8-.7-11,5.8-17.7,4-4.1,8.8-7.5,14.6-10.5,8-4,16.3-6.6,23.4-8.5,8.5-2.3,17.6-4.2,26.8-5.5,4.7-.7,9.3-.9,12.8-1,.9,0,1.7,0,2.6,0,7.8,0,14.9,1.2,22.2,2.5,10.4,1.9,19.6,4.2,28,7,6.3,2.1,13.6,4.9,20.4,9.6,2.5,1.8,4.7,3.7,6.7,5.5,5.8,5.2,8.2,12.9,6.4,20.6-1.2,5.3-2.3,10.1-3.3,14.8-.8,4.3-1.5,8.8-2.2,13.8-1,6.5-1.4,12.9-1.4,19.1,4.3.5,8.9,1.3,13.7,2.8,4.8,1.5,8.6,4.2,11.4,8,0,0,0,0,0,0,2.3,3.1,3.5,7,3.5,10.8Z"/>
      <use transform="translate(702.1 797.9) scale(.2)" xlink:href="#image-3"/>
    </g>
    <g>
      <path class="cls-3" d="M937.5,383.9c0,1.5,0,2.8-.1,4,0,.5,0,1.1,0,1.6-.2,8.5-5.4,15.2-13.6,17.5-1.7.5-3.3.8-4.8,1.2l-.8.2-2,.5c.2,1.6.3,3.4.2,5.2,0,.6,0,1.2-.1,1.7,1,2.8,1.5,6.1,1.1,10.1,0,0,0,.1,0,.2,0,0,0,.1,0,.2,1,3.5,1.5,8,.7,13.1,4.2,3.6,5.9,8.6,5.9,12.9,0,7.7-4.8,14.4-12.5,17-1.8.6-3.6,1-5.5,1.2.9,2.4,1.4,4.9,1.2,7.5-.5,7.9-6.8,14.7-14.7,15.8h0c-1.8.3-4.1.6-6.8.6s-.6,0-.9,0c-1.2,0-2.3-.1-3.5-.3-1.2.5-2.4,1-3.6,1.2-.6,6.5-4.1,12.3-9.9,16.3-.1.6-.3,1.2-.5,1.8.4,3.3.2,6.5-.3,9.6-1.9,10.9-11.8,19.1-23,19.1s-4.6-.3-6.8-1c-1-.3-2.1-.7-3-1.1h-.2c-1,0-1.9,0-2.8-.2-.9.2-1.8.2-2.8.2h-.2c-1.5.7-3.1,1.2-4.7,1.6-1.7.4-3.4.6-5.2.6-11.5,0-21.5-8.5-23.1-19.8-.4-2.9-.5-5.8-.2-8.7-.2-.6-.4-1.3-.5-1.9-1.6-1.1-3.2-2.5-4.5-4-2.4-2.8-4.1-6-4.9-9.5-1.2-1.3-2.2-2.8-2.9-4.4h-.3c-6.5,0-13-1.7-19.2-5.1-1.1-.6-4.6-2.5-7.1-6.7-2.8-4.8-3.3-10.6-1.2-15.6.2-.4.3-.7.5-1,.3-1.3.8-2.7,1.6-4.3-3.5-2.7-6.5-6.3-8.6-10.6-1.9-3.7-3.1-7.4-3.7-11.2-2.2-1.6-4.3-3.4-6.2-5.4-1.3-1.2-3.1-3.2-4.3-6.3,0-.2-.1-.4-.2-.5-.5-1.3-1.9-5.4-.9-10.4,0,0,0,0,0-.1.9-3.9,3.1-7.3,6.1-9.7-1.7-.5-3-1.1-3.9-1.5,0,0,0,0-.1,0-6.2-3.2-10-9.5-9.8-16.4,0,0,0,0,0,0,0-.4,0-1.6,0-2-1.2-8.8,3.4-16.9,11.7-20.7,2.5-1.1,5.3-2,8.3-2.7,2.8-.6,5.6-1,8.5-1.4,0-.8,0-1.5,0-2.2-.1-4.7-.4-8.8-.9-12.4-.7-5.7-1.7-11.9-3-19.6-.3-2-.9-4.2-1.5-6.6-.3-1.3-.7-2.7-1-4.1,0,0,0,0,0,0-.4-1.7-.7-3.3-.9-4.8-.6-3.8-.7-11,5.8-17.7,4-4.1,8.8-7.5,14.6-10.5,8-4,16.3-6.6,23.4-8.5,8.5-2.3,17.6-4.2,26.8-5.5,4.7-.7,9.3-.9,12.8-1,.9,0,1.7,0,2.6,0,7.8,0,14.9,1.2,22.2,2.5,10.4,1.9,19.6,4.2,28,7,6.3,2.1,13.6,4.9,20.4,9.6,2.5,1.8,4.7,3.7,6.7,5.5,5.8,5.2,8.2,12.9,6.4,20.6-1.2,5.3-2.3,10.1-3.3,14.8-.8,4.3-1.5,8.8-2.2,13.8-1,6.5-1.4,12.9-1.4,19.1,4.3.5,8.9,1.3,13.7,2.8,4.8,1.5,8.6,4.2,11.4,8,0,0,0,0,0,0,2.3,3.1,3.5,7,3.5,10.8Z"/>
      <use transform="translate(702.1 276.4) scale(.2)" xlink:href="#image-3"/>
    </g>
  </g>
</svg>