<?xml version="1.0" encoding="UTF-8"?>
<svg id="Layer_1" data-name="Layer 1" xmlns="http://www.w3.org/2000/svg" version="1.1" xmlns:xlink="http://www.w3.org/1999/xlink" viewBox="0 0 14.4 14.5">
  <defs>
    <style>
      .cls-1 {
        clip-rule: evenodd;
      }

      .cls-1, .cls-2 {
        stroke-width: 0px;
      }

      .cls-1, .cls-3 {
        fill: #5a6168;
      }

      .cls-4 {
        clip-path: url(#clippath);
      }

      .cls-2 {
        fill: #fff;
      }

      .cls-3 {
        fill-rule: evenodd;
      }
    </style>
    <clipPath id="clippath">
      <path id="Path_153-2" data-name="Path 153" class="cls-1" d="M8.3,8.4L14.3,1.8c.2-.2.1-.4,0-.6,0,0,0,0,0,0L13.2.1c-.2-.1-.4-.1-.6,0l-6.5,6c-.2.2-.2.4,0,.6,0,0,0,0,0,0l1.7,1.7c.2.2.4.2.6,0,0,0,0,0,0,0ZM4.9,7.5l2.1,2.1c.1.1.2.3.2.5v.4c0,.9-.3,1.7-.9,2.3-1.3,1.2-3,1.8-4.7,1.7-.5,0-1-.2-1.4-.5-.1-.1-.2-.3,0-.5.5-.8.7-1.7.7-2.6,0-1,.3-2,1-2.7.6-.6,1.4-.9,2.3-.9.1,0,.3,0,.4,0,.2,0,.3.1.5.3Z"/>
    </clipPath>
  </defs>
  <path id="Path_153" data-name="Path 153" class="cls-3" d="M8.3,8.4L14.3,1.8c.2-.2.1-.4,0-.6,0,0,0,0,0,0L13.2.1c-.2-.1-.4-.1-.6,0l-6.5,6c-.2.2-.2.4,0,.6,0,0,0,0,0,0l1.7,1.7c.2.2.4.2.6,0,0,0,0,0,0,0ZM4.9,7.5l2.1,2.1c.1.1.2.3.2.5v.4c0,.9-.3,1.7-.9,2.3-1.3,1.2-3,1.8-4.7,1.7-.5,0-1-.2-1.4-.5-.1-.1-.2-.3,0-.5.5-.8.7-1.7.7-2.6,0-1,.3-2,1-2.7.6-.6,1.4-.9,2.3-.9.1,0,.3,0,.4,0,.2,0,.3.1.5.3Z"/>
  <g class="cls-4">
    <rect class="cls-2" x="-2" y="-2.5" width="19.5" height="20.6"/>
  </g>
</svg>