<?xml version="1.0" encoding="UTF-8"?>
<svg id="Layer_1" data-name="Layer 1" xmlns="http://www.w3.org/2000/svg" version="1.1" xmlns:xlink="http://www.w3.org/1999/xlink" viewBox="0 0 16.3 16.3">
  <defs>
    <style>
      .cls-1, .cls-2 {
        fill: #5a6168;
      }

      .cls-1, .cls-3 {
        stroke-width: 0px;
      }

      .cls-4 {
        clip-path: url(#clippath);
      }

      .cls-3 {
        fill: #fff;
      }
    </style>
    <clipPath id="clippath">
      <path id="circle-regular-2" data-name="circle-regular" class="cls-1" d="M16.3,8.1c0,4.5-3.6,8.1-8.1,8.1S0,12.7,0,8.1,3.6,0,8.1,0c4.5,0,8.1,3.6,8.1,8.1h0ZM8.1,1.5c-3.7,0-6.6,3-6.6,6.6,0,3.7,3,6.6,6.6,6.6,3.7,0,6.6-3,6.6-6.6,0-3.7-3-6.6-6.6-6.6,0,0,0,0,0,0Z"/>
    </clipPath>
  </defs>
  <path id="circle-regular" class="cls-2" d="M16.3,8.1c0,4.5-3.6,8.1-8.1,8.1S0,12.7,0,8.1,3.6,0,8.1,0c4.5,0,8.1,3.6,8.1,8.1h0ZM8.1,1.5c-3.7,0-6.6,3-6.6,6.6,0,3.7,3,6.6,6.6,6.6,3.7,0,6.6-3,6.6-6.6,0-3.7-3-6.6-6.6-6.6,0,0,0,0,0,0Z"/>
  <g class="cls-4">
    <rect class="cls-3" x="-9.1" y="-8.8" width="30.4" height="28.5"/>
  </g>
</svg>