<?xml version="1.0" encoding="UTF-8"?>
<svg id="Layer_1" data-name="Layer 1" xmlns="http://www.w3.org/2000/svg" version="1.1" viewBox="0 0 221.2 208.9">
  <defs>
    <style>
      .cls-1 {
        fill: #fff;
        stroke-width: 0px;
      }
    </style>
  </defs>
  <path class="cls-1" d="M206.4,9c3.6,0,6.3,3.2,5.7,6.7l-29.4,179.4c-.5,2.8-2.9,4.8-5.7,4.8H44.2c-2.8,0-5.2-2.1-5.7-4.8L9.1,15.7c-.6-3.5,2.1-6.7,5.7-6.7h191.6M206.4,0H14.8C10.4,0,6.3,1.9,3.5,5.2.7,8.5-.5,12.9.2,17.2l29.5,179.4c1.2,7.2,7.3,12.4,14.6,12.4h132.7c7.3,0,13.4-5.2,14.6-12.4l29.4-179.4c.7-4.3-.5-8.6-3.3-12C214.8,1.9,210.7,0,206.4,0h0Z"/>
  <path class="cls-1" d="M196,34l-24.8,150.9c-.4,2.4-2.4,4.1-4.8,4.1H54.8c-2.4,0-4.4-1.7-4.8-4.1L25.2,34c-.5-3,1.8-5.6,4.8-5.6h161.2c3,0,5.3,2.7,4.8,5.6h0Z"/>
</svg>