<?xml version="1.0" encoding="UTF-8"?>
<svg id="Layer_1" data-name="Layer 1" xmlns="http://www.w3.org/2000/svg" version="1.1" viewBox="0 0 16.3 16.3">
  <defs>
    <style>
      .cls-1 {
        fill: #fff;
        stroke-width: 0px;
      }
    </style>
  </defs>
  <path id="square-regular" class="cls-1" d="M14,0c1.3,0,2.3,1,2.3,2.3v11.6c0,1.3-1,2.3-2.3,2.3H2.3c-1.3,0-2.3-1-2.3-2.3V2.3C0,1,1,0,2.3,0h11.6ZM14,1.7H2.3c-.3,0-.6.3-.6.6h0v11.6c0,.3.3.6.6.6h11.6c.3,0,.6-.3.6-.6V2.3c0-.3-.3-.6-.6-.6Z"/>
</svg>